<?xml version="1.0" encoding="UTF-8"?>
<svg version="1.1" xmlns="http://www.w3.org/2000/svg" width="1254" height="1254">
<path d="M0 0 C413.82 0 827.64 0 1254 0 C1254 413.82 1254 827.64 1254 1254 C840.18 1254 426.36 1254 0 1254 C0 840.18 0 426.36 0 0 Z " fill="#FDFDFD" transform="translate(0,0)"/>
<path d="M0 0 C0.89519348 0.00060425 1.79038696 0.0012085 2.71270752 0.00183105 C16.487776 0.02696636 30.07417696 0.41524985 43.75 2.1875 C44.7596582 2.31108887 45.76931641 2.43467773 46.80957031 2.56201172 C107.80291752 10.17004187 167.79918689 31.56392008 218.75 66.1875 C217.24370728 69.48869646 215.33718151 72.19569312 213.125 75.06640625 C212.41859375 75.98744141 211.7121875 76.90847656 210.984375 77.85742188 C210.24703125 78.81197266 209.5096875 79.76652344 208.75 80.75 C207.29091405 82.64655664 205.83254834 84.54366767 204.375 86.44140625 C203.72789062 87.28002197 203.08078125 88.1186377 202.4140625 88.98266602 C201.13589955 90.67619442 199.92692415 92.42211377 198.75 94.1875 C195.81285953 93.57246644 193.57662108 92.65269357 191.01171875 91.10546875 C190.28597656 90.67403564 189.56023438 90.24260254 188.8125 89.7980957 C188.02875 89.32847412 187.245 88.85885254 186.4375 88.375 C170.13724289 78.79733143 153.52806439 70.04666309 135.94580078 63.06054688 C134.40980668 62.44983808 132.87717443 61.83063655 131.34716797 61.20507812 C121.97404642 57.38917945 112.37878204 54.2879023 102.75 51.1875 C101.02330078 50.62869141 101.02330078 50.62869141 99.26171875 50.05859375 C78.92974933 43.88408207 57.85407929 40.32924181 36.75 38.1875 C36.06111191 38.10572006 35.37222382 38.02394012 34.66246033 37.93968201 C27.61048507 37.14709227 20.6118021 36.9945993 13.51953125 36.94921875 C11.63457947 36.93452797 11.63457947 36.93452797 9.71154785 36.91954041 C5.66182473 36.89445365 1.61228699 36.8808559 -2.4375 36.875 C-3.12540745 36.87384941 -3.8133149 36.87269882 -4.52206802 36.87151337 C-25.00571993 36.84767322 -45.09822872 37.06806017 -65.25 41.1875 C-66.38179687 41.41775879 -67.51359375 41.64801758 -68.6796875 41.88525391 C-75.28459964 43.2683893 -81.83697941 44.81240417 -88.37792969 46.47021484 C-91.00831705 47.1271409 -93.64355375 47.73950905 -96.2890625 48.33203125 C-120.19676941 53.78615926 -143.10770689 62.76455569 -165.25 73.1875 C-166.1889209 73.62674805 -167.1278418 74.06599609 -168.09521484 74.51855469 C-189.04084321 84.40333785 -208.61314413 96.46140309 -227.25 110.1875 C-227.81251465 110.59838867 -228.3750293 111.00927734 -228.95458984 111.43261719 C-238.95121879 118.74398946 -248.52667539 126.49472339 -257.66796875 134.8515625 C-259.08059541 136.12955152 -260.49944736 137.40121969 -261.94604492 138.640625 C-267.45211314 143.36511002 -272.62961878 148.38093706 -277.75854492 153.51074219 C-279.17668284 154.92669947 -280.60296665 156.33448289 -282.02929688 157.7421875 C-288.21245265 163.91245275 -293.82032941 170.3506271 -299.25 177.1875 C-300.33498546 178.50424046 -301.42316262 179.81836254 -302.515625 181.12890625 C-315.60024245 196.95336394 -326.96822687 213.41686701 -337.25 231.1875 C-337.97475219 232.42347524 -338.69996566 233.65918018 -339.42578125 234.89453125 C-341.40659716 238.30439271 -343.33962311 241.73795253 -345.25 245.1875 C-345.61770508 245.84379395 -345.98541016 246.50008789 -346.36425781 247.17626953 C-365.57665959 281.66436732 -378.48976378 319.55489751 -386.25 358.1875 C-386.46092285 359.23212402 -386.6718457 360.27674805 -386.88916016 361.35302734 C-389.47366293 374.43983722 -391.08945538 387.51217079 -392.07080078 400.81152344 C-392.2243391 402.84726579 -392.40443639 404.88097493 -392.58984375 406.9140625 C-394.41228162 428.63352754 -393.4371659 450.5386079 -391.25 472.1875 C-391.14816406 473.20295898 -391.04632813 474.21841797 -390.94140625 475.26464844 C-389.45958702 489.50200417 -387.03254934 503.41508673 -383.87646484 517.37353516 C-383.2992108 519.96645416 -382.76283731 522.5639785 -382.23828125 525.16796875 C-376.80989726 551.07734456 -366.50133287 576.32048508 -355.25 600.1875 C-354.90549805 600.92484375 -354.56099609 601.6621875 -354.20605469 602.421875 C-346.25252705 619.3120411 -337.02175321 635.93600065 -326.25 651.1875 C-325.36222965 652.48495816 -324.47559778 653.78319574 -323.58984375 655.08203125 C-316.82260012 664.92529471 -309.51019624 674.17880732 -301.81738281 683.31152344 C-300.41767071 684.98681749 -299.04166167 686.67680648 -297.6796875 688.3828125 C-293.5767481 693.51506073 -289.33773789 698.28178888 -284.5859375 702.82421875 C-282.60986426 704.82342328 -280.7895244 706.86098597 -278.9609375 708.9921875 C-275.36778588 713.13224854 -271.51835661 716.90111091 -267.5 720.625 C-266.7975415 721.27895752 -266.09508301 721.93291504 -265.37133789 722.60668945 C-259.84798119 727.71154299 -254.14857284 732.52121954 -248.25 737.1875 C-247.14698705 738.09198408 -246.04551357 738.99834769 -244.9453125 739.90625 C-221.64479831 759.02691314 -196.17994707 774.73954304 -169.25 788.1875 C-168.44385254 788.59452148 -167.63770508 789.00154297 -166.80712891 789.42089844 C-139.2696275 803.25633292 -110.23589522 812.46228857 -80.25 819.1875 C-79.37730469 819.38617676 -78.50460937 819.58485352 -77.60546875 819.78955078 C-64.29180175 822.78512586 -50.90711821 824.45348482 -37.34106445 825.86206055 C-35.63895417 826.04126543 -33.93733874 826.22711447 -32.23939514 826.44224548 C-26.50347901 827.14771985 -20.85814189 827.34825241 -15.08203125 827.35546875 C-14.12592453 827.35879715 -13.16981781 827.36212555 -12.18473816 827.36555481 C-10.16523718 827.37059302 -8.14572796 827.3729641 -6.1262207 827.37280273 C-3.11589819 827.3749617 -0.10595967 827.39307433 2.90429688 827.41210938 C21.15779501 827.466401 39.18290358 826.11375508 57.1875 823.0625 C58.42685303 822.85439697 59.66620605 822.64629395 60.94311523 822.43188477 C84.60612507 818.26321781 107.9842977 811.69923195 130.4375 803.1875 C131.36435608 802.83634125 131.36435608 802.83634125 132.30993652 802.47808838 C171.3729357 787.61090196 207.00045002 767.10348247 239.75 741.1875 C240.67039062 740.46175781 241.59078125 739.73601563 242.5390625 738.98828125 C248.81328063 733.95263356 254.73429772 728.60164763 260.60546875 723.109375 C263.39932631 720.49848405 266.25441326 717.96396481 269.125 715.4375 C272.72995522 712.21048364 275.93217644 708.8375102 279.046875 705.140625 C280.81795457 703.10957045 282.68961054 701.24943232 284.625 699.375 C289.41577955 694.63928689 293.55111634 689.44603884 297.75 684.1875 C298.69932108 683.02766281 299.64989622 681.86885119 300.6015625 680.7109375 C319.37104776 657.75719158 335.07730254 632.20655543 348.06347656 605.57543945 C349.55614399 602.51985665 351.10751974 599.53300861 352.828125 596.6015625 C354.56747657 593.51173878 355.89561097 590.56760658 357.125 587.25 C357.76115234 585.54457031 357.76115234 585.54457031 358.41015625 583.8046875 C358.85230469 582.61101563 359.29445313 581.41734375 359.75 580.1875 C360.20246094 579.01445313 360.65492188 577.84140625 361.12109375 576.6328125 C362.71364162 572.50214146 364.2449342 568.35079662 365.75 564.1875 C366.05309082 563.34912598 366.35618164 562.51075195 366.66845703 561.64697266 C381.43637905 520.28628002 388.05497259 477.97570808 389.75 434.1875 C400.64 434.1875 411.53 434.1875 422.75 434.1875 C423.06814604 473.00131688 418.31837084 510.52962075 408.125 548 C407.93717957 548.69391846 407.74935913 549.38783691 407.55584717 550.1027832 C405.40045382 558.00801288 402.92257725 565.63055344 399.75 573.1875 C399.08765598 574.9008049 398.43285976 576.61704441 397.78515625 578.3359375 C397.46297119 579.18945801 397.14078613 580.04297852 396.80883789 580.92236328 C396.48004639 581.7936084 396.15125488 582.66485352 395.8125 583.5625 C380.28003481 624.41491361 359.06673329 662.98394257 331.75 697.1875 C331.26063965 697.80689453 330.7712793 698.42628906 330.26708984 699.06445312 C323.38460828 707.76668768 316.22945078 716.08836742 308.60546875 724.1484375 C306.39771885 726.48252808 304.26842716 728.86375763 302.1875 731.3125 C295.62821094 738.89973735 288.35580731 746.00146509 280.71875 752.49609375 C278.47218493 754.42617842 276.30416096 756.43168139 274.125 758.4375 C267.92377426 764.02427502 261.36821727 769.11006779 254.75 774.1875 C254.11787598 774.67653809 253.48575195 775.16557617 252.83447266 775.66943359 C242.81442095 783.40956415 232.49614331 790.49458952 221.75 797.1875 C221.14929688 797.56438965 220.54859375 797.9412793 219.9296875 798.32958984 C185.50130665 819.83767866 147.49739154 837.90078979 107.95849609 847.62451172 C104.93900628 848.39423795 101.97536023 849.32586253 99 850.25 C65.76876064 859.81294658 30.41218457 862.61559722 -4 862.5 C-5.1357547 862.49817719 -6.2715094 862.49635437 -7.44168091 862.49447632 C-24.56489343 862.44833102 -41.3112091 861.88683673 -58.25 859.1875 C-59.44512207 859.00525879 -60.64024414 858.82301758 -61.87158203 858.63525391 C-143.11597655 846.10148148 -221.88915712 809.68725221 -282.44921875 753.7421875 C-284.57253873 751.80543538 -286.71839519 749.92527406 -288.8984375 748.0546875 C-293.71192656 743.8537213 -298.24249375 739.38108294 -302.75854492 734.86425781 C-304.17668284 733.44830053 -305.60296665 732.04051711 -307.02929688 730.6328125 C-312.44812016 725.22528628 -317.48043943 719.67441033 -322.23681641 713.67431641 C-324.29826785 711.12787638 -326.46256382 708.71660835 -328.6875 706.3125 C-333.92126175 700.55172751 -338.61450664 694.42919091 -343.25 688.1875 C-344.41982422 686.61935547 -344.41982422 686.61935547 -345.61328125 685.01953125 C-379.31082622 639.18448193 -403.26439663 586.6567727 -416.69335938 531.45947266 C-417.40688522 528.54716059 -418.17653182 525.65022057 -418.9375 522.75 C-421.9464787 510.42791493 -423.79201643 498.01994203 -425.13037109 485.42358398 C-425.3753149 483.12204116 -425.63028992 480.82177309 -425.88671875 478.52148438 C-427.5316195 463.56440075 -428.46015976 448.67443517 -428.4375 433.625 C-428.43689575 432.8731543 -428.4362915 432.12130859 -428.43566895 431.34667969 C-428.22566668 333.86465331 -394.00417307 240.76348333 -334.25 164.1875 C-333.51910156 163.24003906 -332.78820312 162.29257812 -332.03515625 161.31640625 C-327.64059373 155.69963411 -322.91786429 150.45525337 -318.05859375 145.2421875 C-316.03019302 143.06210707 -314.08081125 140.82851101 -312.14453125 138.56640625 C-307.6737623 133.43818916 -302.88090931 128.63235804 -298.07226562 123.82446289 C-296.51139673 122.26141266 -294.95872112 120.69052635 -293.40625 119.11914062 C-287.79773114 113.47940407 -282.06239263 108.23241979 -275.83081055 103.27124023 C-273.3553696 101.27257516 -270.98738261 99.19711404 -268.62890625 97.0625 C-243.58889191 74.59254255 -213.40192425 56.5972422 -183.15380859 42.10253906 C-181.19639145 41.1617338 -179.24867116 40.20254252 -177.30078125 39.2421875 C-137.60786607 19.883621 -94.44983601 8.10459501 -50.75 2.4375 C-49.86868408 2.32180664 -48.98736816 2.20611328 -48.0793457 2.08691406 C-32.13576328 0.1705971 -16.03879502 -0.02025621 0 0 Z " fill="#04CCF3" transform="translate(617.25,207.8125)"/>
<path d="M0 0 C4.45642405 0.41479842 6.88292308 3.51064589 9.8125 6.5625 C10.34657471 7.10825684 10.88064941 7.65401367 11.4309082 8.21630859 C14.83581956 11.7199505 18.13281257 15.29927747 21.30078125 19.01953125 C23.28030432 21.32669952 25.3264212 23.56646782 27.375 25.8125 C31.29255422 30.15429021 35.01936666 34.62073471 38.6953125 39.16796875 C41.03209694 42.03944116 43.41962573 44.86268516 45.8125 47.6875 C55.98512284 59.89149799 65.12104794 72.83712343 74 86 C75.01126953 87.48693359 75.01126953 87.48693359 76.04296875 89.00390625 C89.73115393 109.296288 101.92064869 130.35763683 113.5625 151.875 C114.15853027 152.97465088 114.75456055 154.07430176 115.36865234 155.20727539 C123 169.41097581 123 169.41097581 123 174 C121.36132812 175.31176758 121.36132812 175.31176758 119.03125 176.64453125 C118.16242188 177.14919922 117.29359375 177.65386719 116.3984375 178.17382812 C115.44195313 178.71458984 114.48546875 179.25535156 113.5 179.8125 C112.51257812 180.38291016 111.52515625 180.95332031 110.5078125 181.54101562 C108.40746181 182.75387557 106.30451162 183.96224305 104.19921875 185.16650391 C99.11491752 188.08035481 94.05929421 191.04302249 89 194 C86.98180653 195.17584253 84.9635774 196.35162384 82.9453125 197.52734375 C74.51459844 202.44548906 66.11601443 207.41779412 57.71777344 212.39111328 C52.22911747 215.64032662 46.73675333 218.88326855 41.24511719 222.12744141 C36.68565376 224.82122868 32.12703286 227.5164186 27.5703125 230.21484375 C18.27404549 235.71773918 8.96282814 241.19290557 -0.375 246.625 C-20.82698703 258.53430539 -41.16768597 270.62973729 -61.37869263 282.94345093 C-69.83418339 288.09451067 -78.32697855 293.17530344 -86.859375 298.19775391 C-110.85089068 312.32560447 -134.77656727 326.6347831 -158.33911133 341.47045898 C-165.975953 346.26497541 -173.72900214 350.86728837 -181.47070312 355.48974609 C-196.51445848 364.47243631 -211.50494793 373.54165229 -226.4768219 382.64346313 C-230.83598481 385.2933109 -235.19688555 387.94028176 -239.55859375 390.5859375 C-240.80729651 391.34349788 -242.05599447 392.10106616 -243.3046875 392.85864258 C-245.64432637 394.27808924 -247.98420059 395.69714523 -250.32421875 397.1159668 C-259.60580439 402.7483405 -268.8596615 408.42459697 -278.0811615 414.15486145 C-280.88601566 415.89720563 -283.69335933 417.63553549 -286.5 419.375 C-287.07041016 419.73062012 -287.64082031 420.08624023 -288.22851562 420.45263672 C-289.91046638 421.50076062 -291.59581719 422.54342213 -293.28125 423.5859375 C-294.26158203 424.1948584 -295.24191406 424.8037793 -296.25195312 425.43115234 C-298.78769949 426.87879859 -301.26315444 427.99520096 -304 429 C-304.32871094 428.34773438 -304.65742187 427.69546875 -304.99609375 427.0234375 C-309.4628568 418.81621433 -314.75421833 415.02961276 -323 411 C-322.38374861 407.49816634 -321.02597651 405.40606297 -318.859375 402.61328125 C-318.20735107 401.76580322 -317.55532715 400.9183252 -316.88354492 400.04516602 C-315.82744019 398.69249634 -315.82744019 398.69249634 -314.75 397.3125 C-314.02852783 396.37784912 -313.30705566 395.44319824 -312.5637207 394.48022461 C-311.08537301 392.56506646 -309.60465475 390.65173587 -308.12158203 388.74023438 C-305.65946302 385.56016259 -303.22081668 382.3628275 -300.78564453 379.16210938 C-295.0389559 371.6122282 -289.20975233 364.1302856 -283.32958984 356.68408203 C-272.80490147 343.35332544 -262.34508299 329.97069098 -252 316.5 C-243.18846438 305.03055856 -234.32286634 293.60734637 -225.26049805 282.3347168 C-221.68640846 277.88070416 -218.18546223 273.37579548 -214.71557617 268.84033203 C-210.32438315 263.10400206 -205.85397213 257.43101118 -201.38232422 251.75732422 C-200.02343381 250.02979098 -198.66916291 248.29874535 -197.31640625 246.56640625 C-192.48453873 240.38478138 -187.59411614 234.25946325 -182.625 228.1875 C-178.0913683 222.64706803 -173.69412877 217.02152364 -169.375 211.3125 C-165.1329617 205.7071749 -160.76039387 200.27730015 -156.16796875 194.95678711 C-151.79839279 189.85340736 -147.75470538 184.51730697 -143.69970703 179.1628418 C-139.97947746 174.25708723 -136.15439221 169.46071169 -132.2265625 164.71875 C-129.68764202 161.61859446 -127.21593488 158.47075806 -124.75 155.3125 C-120.70678793 150.13644524 -116.59377792 145.02314333 -112.4375 139.9375 C-108.56773588 135.20094937 -104.76531751 130.4307945 -101.0625 125.5625 C-96.60272944 119.71267108 -91.94816006 114.04281633 -87.25341797 108.38061523 C-83.03204954 103.28013045 -78.90904003 98.11337194 -74.83666992 92.89355469 C-69.9433536 86.62793297 -64.88686573 80.49954587 -59.828125 74.3671875 C-55.67405976 69.31454786 -51.58792384 64.21765771 -47.5625 59.0625 C-44.11271298 54.64511902 -40.60615785 50.29195649 -37 46 C-33.49813527 41.8319 -30.09415077 37.60666605 -26.75 33.3125 C-21.92415312 27.11666235 -16.94977851 21.05263888 -11.94189453 15.00341797 C-7.86664353 10.07369723 -3.86366268 5.09829173 0 0 Z " fill="#88E316" transform="translate(947,203)"/>
<path d="M0 0 C0.97743164 0.25233398 1.95486328 0.50466797 2.96191406 0.76464844 C25.7252636 6.80739616 47.52565279 16.41736929 68 28 C67.37972313 31.50197985 66.0041008 33.65347508 63.875 36.4765625 C62.93914062 37.72953125 62.93914062 37.72953125 61.984375 39.0078125 C61.32953125 39.87148438 60.6746875 40.73515625 60 41.625 C58.70712172 43.34544433 57.41539672 45.06675613 56.125 46.7890625 C55.55007813 47.54912598 54.97515625 48.30918945 54.3828125 49.09228516 C52.9568979 50.95050772 52.9568979 50.95050772 52 53 C46.19861604 52.47515751 41.79246365 50.08832385 36.6875 47.5 C11.96471137 35.4038904 -14.7002762 27.5348894 -42 24 C-43.03471436 23.85860596 -43.03471436 23.85860596 -44.09033203 23.71435547 C-66.79928766 21.00131717 -91.56563405 21.84088329 -114 26 C-115.05622559 26.19335938 -116.11245117 26.38671875 -117.20068359 26.5859375 C-161.13073465 34.90344607 -202.17617245 54.03672701 -237 82 C-238.0003125 82.7940625 -239.000625 83.588125 -240.03125 84.40625 C-253.90792458 95.75989283 -267.25040909 108.61879053 -278 123 C-278.86190416 124.12115141 -279.72388867 125.24224106 -280.5859375 126.36328125 C-306.49858273 160.47357853 -326.3519834 202.84585068 -332.5625 245.4375 C-332.67529297 246.18064453 -332.78808594 246.92378906 -332.90429688 247.68945312 C-333.14338645 249.26691006 -333.37608176 250.84534586 -333.60327148 252.42456055 C-333.87633089 254.19717821 -334.18530078 255.96451431 -334.52368164 257.72583008 C-336.28867216 267.43997845 -336.33805134 277.06033153 -336.31567383 286.90063477 C-336.31251714 289.79677129 -336.33603867 292.69187979 -336.36132812 295.58789062 C-336.39504352 305.47622462 -335.86740211 314.73819486 -333.77612305 324.40966797 C-333.04186405 327.80633761 -332.50731112 331.17226898 -332.03125 334.61328125 C-330.98255195 341.5985128 -329.32332832 348.36768498 -327.5 355.1875 C-327.32804108 355.83074219 -327.15608215 356.47398437 -326.97891235 357.13671875 C-316.2527722 396.90394591 -297.00615584 434.39692226 -269.03125 464.78515625 C-267.22158012 466.75839244 -265.48160109 468.77107813 -263.75 470.8125 C-255.32757292 480.44370134 -246.1025683 489.15498886 -236 497 C-234.99453125 497.79921875 -233.9890625 498.5984375 -232.953125 499.421875 C-204.16597881 522.15253929 -170.6252157 539.90514419 -135 549 C-133.95457031 549.27457031 -132.90914062 549.54914062 -131.83203125 549.83203125 C-109.00835548 555.70428243 -86.1682366 557.29184608 -62.6875 557.3125 C-61.7717923 557.31590393 -60.85608459 557.31930786 -59.91262817 557.32281494 C-46.34461496 557.35170732 -33.27743992 556.65251346 -20.0390625 553.4296875 C-17.85528048 552.96950355 -15.72272641 552.75345588 -13.5 552.5625 C-10.41709485 552.26165987 -7.74744837 551.67236617 -4.83203125 550.6328125 C-1.65265932 549.53788406 1.52231509 548.54957399 4.76953125 547.67578125 C22.3592526 542.94002022 38.89146407 536.50428722 55.01708984 528.03417969 C57.070529 526.96321585 59.13722705 525.9217544 61.20703125 524.8828125 C71.39948446 519.70820028 80.78184861 513.75187026 90 507 C90.57202148 506.58105469 91.14404297 506.16210938 91.73339844 505.73046875 C109.98025729 492.24598654 127.1168136 477.01201507 141 459 C141.79664063 457.99710938 142.59328125 456.99421875 143.4140625 455.9609375 C159.67607904 435.38095512 175.15233039 411.1747025 183 386 C193.21565404 386.46434791 202.3150423 393.0671018 211 398 C203.92590256 420.14751486 192.48642236 441.10738247 179 460 C178.38125 460.87914062 177.7625 461.75828125 177.125 462.6640625 C175.11888994 465.47099875 173.0706678 468.240351 171 471 C170.61005859 471.52287598 170.22011719 472.04575195 169.81835938 472.58447266 C162.22332932 482.71217612 153.80576929 491.91717452 145 501 C144.41895508 501.60295898 143.83791016 502.20591797 143.23925781 502.82714844 C136.21482867 510.09366015 128.99537028 516.79130464 121 523 C119.99453125 523.79921875 118.9890625 524.5984375 117.953125 525.421875 C105.72858313 535.07273002 92.8342099 543.42950443 79.140625 550.83935547 C77.67901265 551.63184008 76.22080763 552.4306332 74.765625 553.23486328 C62.85203188 559.81722479 50.73923757 565.21925508 38 570 C37.30165039 570.26304932 36.60330078 570.52609863 35.88378906 570.79711914 C34.55054707 571.29828385 33.21682384 571.79817065 31.88256836 572.29663086 C30.0897069 572.96648352 28.2987079 573.64131481 26.5078125 574.31640625 C20.47375616 576.53911292 14.64072402 578.52410936 8.28125 579.54296875 C5.89129494 579.97169132 5.89129494 579.97169132 3.23828125 580.9296875 C-18.09283465 587.98002014 -41.1553216 589.27733976 -63.4375 589.25 C-64.62166 589.24897278 -64.62166 589.24897278 -65.82974243 589.2479248 C-81.75218436 589.20234391 -97.57662019 588.71529842 -113.3125 586.125 C-114.43422607 585.94501465 -115.55595215 585.7650293 -116.71166992 585.57958984 C-124.22607938 584.34990943 -131.64957893 583.00699945 -139 581 C-139.80840332 580.78053711 -140.61680664 580.56107422 -141.44970703 580.33496094 C-144.26109551 579.56689862 -147.06869066 578.78641113 -149.875 578 C-151.21461792 577.62609131 -151.21461792 577.62609131 -152.58129883 577.24462891 C-157.58294707 575.81128989 -162.26069314 574.14466784 -167 572 C-168.60129142 571.34707032 -170.20519861 570.70049186 -171.8125 570.0625 C-173.09833984 569.54816406 -173.09833984 569.54816406 -174.41015625 569.0234375 C-176.05944678 568.37168166 -177.71275125 567.72992951 -179.37109375 567.1015625 C-190.70941609 562.74496574 -201.40931326 556.9114221 -212 551 C-213.58167969 550.14341797 -213.58167969 550.14341797 -215.1953125 549.26953125 C-244.76066118 532.93787509 -274.11195628 509.2230446 -294.95703125 482.58984375 C-296.32430215 480.85657299 -297.7397996 479.16033402 -299.19921875 477.50390625 C-316.97535634 457.25967683 -330.86739385 432.81227105 -341.93652344 408.33618164 C-342.68658961 406.68848118 -343.4517196 405.04759756 -344.22753906 403.41186523 C-347.34621466 396.76594613 -349.80681882 390.06476552 -352 383.0625 C-352.3410376 381.98871094 -352.6820752 380.91492188 -353.03344727 379.80859375 C-355.49996554 371.91760076 -357.65116002 363.97787255 -359.54101562 355.92993164 C-360.14216257 352.15732026 -360.14216257 352.15732026 -362 349 C-362.4503517 346.39948301 -362.84083465 343.81381463 -363.19140625 341.19921875 C-363.30124344 340.38780426 -363.41108063 339.57638977 -363.52424622 338.74038696 C-363.88025345 336.05726974 -364.22388827 333.37286679 -364.5625 330.6875 C-364.67805237 329.7726181 -364.79360474 328.85773621 -364.91265869 327.91513062 C-366.54527186 314.69350094 -367.46764252 301.63535051 -367.375 288.3125 C-367.37049835 287.58380707 -367.3659967 286.85511414 -367.36135864 286.1043396 C-367.24955714 273.65834225 -366.70138331 261.18953797 -364.8125 248.875 C-364.68794434 248.0593457 -364.56338867 247.24369141 -364.43505859 246.40332031 C-361.19881896 226.17962212 -357.1243873 205.86754919 -349 187 C-347.7359991 183.72834505 -346.53880811 180.43195863 -345.33789062 177.13671875 C-335.84979509 151.45126751 -321.02959433 127.35249135 -304 106 C-303.2884375 105.09765625 -302.576875 104.1953125 -301.84375 103.265625 C-288.09833163 86.1322514 -272.50298774 69.32939901 -255 56 C-254.00097656 55.20722656 -253.00195312 54.41445313 -251.97265625 53.59765625 C-234.1067819 39.47356989 -214.56673185 27.74032557 -194 18 C-193.31921387 17.67290039 -192.63842773 17.34580078 -191.93701172 17.00878906 C-163.20546193 3.29524376 -132.47669375 -4.09915532 -101 -8 C-100.20287598 -8.1045752 -99.40575195 -8.20915039 -98.58447266 -8.31689453 C-65.81743132 -12.17386992 -31.7318559 -8.21444835 0 0 Z " fill="#04CBF3" transform="translate(684,351)"/>
<path d="M0 0 C0.65716507 -0.00428009 1.31433014 -0.00856018 1.9914093 -0.01296997 C4.09981225 -0.0228945 6.20798454 -0.0230355 8.31640625 -0.01953125 C9.0374353 -0.01859467 9.75846436 -0.01765808 10.50134277 -0.01669312 C33.88506946 0.04936445 55.21931607 4.36497889 76.87890625 13.16796875 C76.26124801 16.91741523 74.58133627 19.2209042 72.31640625 22.23046875 C71.60355469 23.18695313 70.89070312 24.1434375 70.15625 25.12890625 C69.40472656 26.13179688 68.65320313 27.1346875 67.87890625 28.16796875 C66.37573216 30.22815658 64.87557308 32.29054874 63.37890625 34.35546875 C62.21223958 35.95963542 61.04557292 37.56380208 59.87890625 39.16796875 C53.27901088 38.62920178 47.11399777 36.97584687 40.7578125 35.203125 C40.12367432 35.03401611 39.48953613 34.86490723 38.83618164 34.69067383 C37.54179528 34.34499824 36.25163167 33.98306169 34.96655273 33.60424805 C28.0587499 31.77129787 21.07929348 31.83061811 13.97973633 31.85229492 C11.84468102 31.85542727 9.71105403 31.83202948 7.57617188 31.80664062 C-26.55532118 31.64693724 -58.42287271 45.2209981 -84.12109375 67.16796875 C-84.95125 67.87566406 -85.78140625 68.58335937 -86.63671875 69.3125 C-107.42799132 87.52080773 -121.37371987 110.8980942 -128.87109375 137.35546875 C-129.06985107 138.05510742 -129.2686084 138.75474609 -129.47338867 139.47558594 C-132.55884805 150.90752372 -133.49854248 162.0323684 -133.43359375 173.85546875 C-133.43036102 174.91486664 -133.43036102 174.91486664 -133.42706299 175.9956665 C-133.31161252 199.58159643 -127.65384326 220.58432966 -116.12109375 241.16796875 C-115.75000488 241.83038574 -115.37891602 242.49280273 -114.99658203 243.17529297 C-105.97077506 258.99052527 -93.90299589 273.39848534 -79.49609375 284.60546875 C-78.89200684 285.07573486 -78.28791992 285.54600098 -77.66552734 286.03051758 C-61.478142 298.42959045 -40.15390568 310.57906053 -19.66674805 313.76025391 C-17.99277574 314.02835919 -16.32387424 314.33075386 -14.6628418 314.66992188 C-6.26224245 316.30611803 1.92854369 316.47464895 10.45092773 316.42871094 C12.80934443 316.41800082 15.16699706 316.4286595 17.52539062 316.44140625 C54.58466049 316.47783387 89.65989086 302.14721718 116.87890625 277.16796875 C117.78898437 276.35199219 118.6990625 275.53601563 119.63671875 274.6953125 C147.48069517 248.43430267 160.95765166 212.61314121 163.87890625 175.16796875 C173.77890625 175.16796875 183.67890625 175.16796875 193.87890625 175.16796875 C194.64855782 222.50154051 172.2937701 264.79933573 140.00390625 298.35546875 C134.04314892 304.16411744 127.56495023 309.22994542 120.87890625 314.16796875 C120.32170898 314.58546387 119.76451172 315.00295898 119.19042969 315.43310547 C102.58530761 327.72362595 82.24720717 337.29953517 62.31640625 342.73046875 C61.55191162 342.94026367 60.78741699 343.15005859 59.99975586 343.36621094 C15.41581245 355.24550039 -32.78227283 349.18995852 -73.0546875 326.5859375 C-84.11051118 320.13781678 -94.48539381 312.58360884 -104.12109375 304.16796875 C-104.64300293 303.71309082 -105.16491211 303.25821289 -105.70263672 302.78955078 C-113.30057338 296.11878973 -119.9019196 289.16917549 -126.12109375 281.16796875 C-126.75015625 280.43964844 -127.37921875 279.71132813 -128.02734375 278.9609375 C-155.01913834 247.37832539 -167.71402523 202.22675602 -165.12109375 161.16796875 C-164.49832557 154.76581 -163.37544885 148.47250218 -162.12109375 142.16796875 C-161.98719238 141.4610791 -161.85329102 140.75418945 -161.71533203 140.02587891 C-153.11636636 95.44675628 -124.33641863 55.13788346 -87.2734375 29.5078125 C-62.18195561 12.8438543 -30.53785756 0.19033716 0 0 Z " fill="#05CCF3" transform="translate(604.12109375,466.83203125)"/>
<path d="M0 0 C2.5642537 1.20556349 3.02110384 3.1321284 3.94995117 5.69140625 C4.29413086 6.72019897 4.29413086 6.72019897 4.64526367 7.76977539 C4.89791992 8.4885083 5.15057617 9.20724121 5.41088867 9.94775391 C5.94401903 11.4744004 6.46955233 13.00371797 6.98803711 14.53540039 C7.72736899 16.70632247 8.49786861 18.86326947 9.27807617 21.01977539 C20.18518981 51.72075257 23.99629939 82.64341344 24.02026367 115.01977539 C24.02160309 116.0862027 24.0229425 117.15263 24.02432251 118.25137329 C24.0189744 137.87986982 23.38044276 157.25880692 18.38745117 176.35571289 C17.82288473 178.62112507 17.49416815 180.76262497 17.27026367 183.08227539 C16.88793899 185.94971052 16.4530353 188.02750461 15.52807617 190.69555664 C15.25833984 191.48430176 14.98860352 192.27304687 14.71069336 193.08569336 C14.24518066 194.44525146 14.24518066 194.44525146 13.77026367 195.83227539 C13.02608337 198.06989487 12.28404328 200.30822682 11.54370117 202.54711914 C10.74424891 204.95468016 9.94476922 207.36223207 9.14526367 209.76977539 C8.73791992 211.00018555 8.33057617 212.2305957 7.91088867 213.49829102 C7.5215918 214.6694043 7.13229492 215.84051758 6.73120117 217.04711914 C6.37848145 218.11051514 6.02576172 219.17391113 5.66235352 220.26953125 C4.77026367 222.83227539 4.77026367 222.83227539 3.77026367 224.83227539 C-0.23754788 223.65925738 -3.6444309 222.10706101 -7.23364258 219.98071289 C-9.59186878 218.62392521 -11.991698 217.37713407 -14.41723633 216.14477539 C-15.23579102 215.7284082 -16.0543457 215.31204102 -16.89770508 214.88305664 C-19.01483781 213.92910571 -20.96337796 213.30638714 -23.22973633 212.83227539 C-21.81869231 207.5470491 -20.36442904 202.27596594 -18.83520508 197.02368164 C-11.01395497 170.1404898 -6.6317676 144.70199834 -6.79223633 116.58227539 C-6.79494537 115.46430573 -6.79765442 114.34633606 -6.80044556 113.19448853 C-6.86100856 96.7017536 -7.64647728 80.97770501 -11.22973633 64.83227539 C-11.58745111 62.99572334 -11.94160039 61.15847333 -12.29223633 59.32055664 C-14.63005191 47.63458341 -18.18314746 36.55166701 -22.37109375 25.39672852 C-22.75499268 24.35323242 -23.1388916 23.30973633 -23.53442383 22.23461914 C-23.8848877 21.31156982 -24.23535156 20.38852051 -24.59643555 19.4375 C-25.33671554 16.39219244 -25.35264534 14.76251297 -24.22973633 11.83227539 C-22.16015625 10.1472168 -22.16015625 10.1472168 -19.46020508 8.68383789 C-18.48889648 8.1540332 -17.51758789 7.62422852 -16.5168457 7.07836914 C-15.49397461 6.5434082 -14.47110352 6.00844727 -13.41723633 5.45727539 C-12.4059668 4.89911133 -11.39469727 4.34094727 -10.3527832 3.76586914 C-2.90968167 -0.21887127 -2.90968167 -0.21887127 0 0 Z " fill="#8BE319" transform="translate(891.229736328125,524.167724609375)"/>
<path d="M0 0 C2.88786617 1.27919143 3.2706235 2.89983308 4.46411133 5.78491211 C5.12032471 7.34737671 5.12032471 7.34737671 5.78979492 8.94140625 C6.24563965 10.07570068 6.70148437 11.20999512 7.17114258 12.37866211 C7.88971436 14.12554321 7.88971436 14.12554321 8.62280273 15.90771484 C15.66872183 33.22611253 22.18884176 50.79396998 26.98364258 68.87866211 C27.17877441 69.59151367 27.37390625 70.30436523 27.57495117 71.03881836 C37.02987294 105.97266587 40.34249437 141.81405704 39.98364258 177.87866211 C29.09364258 177.87866211 18.20364258 177.87866211 6.98364258 177.87866211 C6.87407227 175.48616211 6.76450195 173.09366211 6.65161133 170.62866211 C4.39840159 123.17753067 -1.83485522 73.68424189 -24.01635742 30.87866211 C-24.78459053 28.99832013 -25.5197988 27.10373416 -26.20385742 25.19116211 C-26.52741211 24.30041992 -26.8509668 23.40967773 -27.18432617 22.49194336 C-27.98865841 19.96566041 -28.55115028 17.48664153 -29.01635742 14.87866211 C-25.01605415 12.56964148 -21.00728973 10.27649763 -16.98852539 7.99975586 C-15.70393622 7.26952146 -14.42158164 6.53533751 -13.1418457 5.79663086 C-11.39835575 4.79147714 -9.64501687 3.80346641 -7.89135742 2.81616211 C-6.34061523 1.93250977 -6.34061523 1.93250977 -4.75854492 1.03100586 C-2.01635742 -0.12133789 -2.01635742 -0.12133789 0 0 Z " fill="#8CE41A" transform="translate(1000.016357421875,464.121337890625)"/>
<path d="M0 0 C1.31862978 0.89917992 2.61357264 1.83469121 3.875 2.8125 C4.44605469 3.19664062 5.01710938 3.58078125 5.60546875 3.9765625 C10.76445545 7.7216047 12.92115156 12.95095469 14.875 18.8125 C15.69775906 27.85109598 15.38869355 35.3543638 9.875 42.8125 C3.35838412 50.01077027 -3.69441116 53.19674133 -13.35546875 53.8046875 C-22.41992412 53.83025719 -28.24627436 50.61519355 -34.62890625 44.33203125 C-40.8902627 37.36043139 -41.64313847 31.2856341 -41.40234375 22.18359375 C-40.72280735 13.92387662 -37.30226461 8.32036521 -31.125 2.8125 C-22.67596205 -3.62560457 -9.51645036 -5.07221974 0 0 Z " fill="#03CCF3" transform="translate(629.125,615.1875)"/>
<path d="M0 0 C0.85961914 1.79077148 0.85961914 1.79077148 1.53515625 4.12109375 C1.78716797 4.97509766 2.03917969 5.82910156 2.29882812 6.70898438 C2.55083984 7.60939453 2.80285156 8.50980469 3.0625 9.4375 C3.31837891 10.30310547 3.57425781 11.16871094 3.83789062 12.06054688 C7.65628642 25.2433375 9.18048195 37.92029972 9.0625 51.625 C9.041875 55.04875 9.02125 58.4725 9 62 C-0.9 62 -10.8 62 -21 62 C-21.103125 59.050625 -21.20625 56.10125 -21.3125 53.0625 C-21.86292837 40.7229705 -23.45968476 28.62636384 -27.44921875 16.8828125 C-28 15 -28 15 -28 12 C-26.94941406 11.48050781 -25.89882813 10.96101562 -24.81640625 10.42578125 C-23.39826847 9.72169451 -21.98031148 9.01724356 -20.5625 8.3125 C-19.46675659 7.76928101 -19.46675659 7.76928101 -18.34887695 7.21508789 C-13.68657864 4.88885295 -9.14030857 2.44580861 -4.69921875 -0.28515625 C-3 -1 -3 -1 0 0 Z " fill="#8CE31B" transform="translate(789,580)"/>
<path d="M0 0 C0.33 0 0.66 0 1 0 C1.33 3.3 1.66 6.6 2 10 C4.475 10.99 4.475 10.99 7 12 C7 12.66 7 13.32 7 14 C3.7 13.01 0.4 12.02 -3 11 C-2.01 7.37 -1.02 3.74 0 0 Z " fill="#9BE82A" transform="translate(871,726)"/>
<path d="M0 0 C0.33 0 0.66 0 1 0 C1 7.26 1 14.52 1 22 C0.01 22 -0.98 22 -2 22 C-1.33333333 14.66666667 -0.66666667 7.33333333 0 0 Z " fill="#8DE927" transform="translate(797,620)"/>
<path d="M0 0 C0.33 0.99 0.66 1.98 1 3 C-3.455 6.96 -3.455 6.96 -8 11 C-8.66 10.67 -9.32 10.34 -10 10 C-6.7 6.7 -3.4 3.4 0 0 Z " fill="#E6FBFD" transform="translate(339,361)"/>
<path d="M0 0 C0.66 0.33 1.32 0.66 2 1 C-0.5550839 3.98093122 -3.38281401 5.52359755 -7 7 C-9.19140625 6.578125 -9.19140625 6.578125 -11 6 C-9.21385682 4.96953278 -7.42089982 3.95086764 -5.625 2.9375 C-4.62726562 2.36902344 -3.62953125 1.80054688 -2.6015625 1.21484375 C-1.74304688 0.81394531 -0.88453125 0.41304688 0 0 Z " fill="#96E933" transform="translate(990,468)"/>
<path d="M0 0 C4.03321763 1.21934486 7.54269479 2.55954927 11 5 C11 5.66 11 6.32 11 7 C6.00724943 5.72278474 3.42388092 3.82669043 0 0 Z " fill="#80E429" transform="translate(884,742)"/>
<path d="M0 0 C0.66 0 1.32 0 2 0 C1.52797514 4.24822374 -0.96655518 6.19989709 -4 9 C-3.4739075 5.21213403 -2.61896089 2.82847776 0 0 Z " fill="#17CDF5" transform="translate(593,624)"/>
<path d="M0 0 C0.66 0.33 1.32 0.66 2 1 C1.67 4.3 1.34 7.6 1 11 C-1.43769218 7.34346173 -1.23944439 5.30999899 -1 1 C-0.67 0.67 -0.34 0.34 0 0 Z " fill="#8CE928" transform="translate(910,684)"/>
<path d="M0 0 C1.25541557 3.76624671 0.37061958 5.37188934 -1 9 C-1.66 9 -2.32 9 -3 9 C-2.4140625 2.84765625 -2.4140625 2.84765625 -2 1 C-1.34 0.67 -0.68 0.34 0 0 Z " fill="#9CE735" transform="translate(880,700)"/>
<path d="M0 0 C0.66 0.99 1.32 1.98 2 3 C-0.625 7.875 -0.625 7.875 -4 9 C-2.94124926 5.59687262 -1.99097846 2.98646769 0 0 Z " fill="#2ED1F6" transform="translate(755,697)"/>
<path d="M0 0 C0.33 0 0.66 0 1 0 C2.17618014 6.66502081 1.64071614 10.83832901 -1 17 C-2.3357457 13.22628488 -1.72408671 10.14168653 -1.0625 6.25 C-0.86785156 5.07953125 -0.67320312 3.9090625 -0.47265625 2.703125 C-0.31667969 1.81109375 -0.16070313 0.9190625 0 0 Z " fill="#A1EA41" transform="translate(883,675)"/>
<path d="M0 0 C0.99 0.33 1.98 0.66 3 1 C3.94921875 3.06640625 3.94921875 3.06640625 4.6875 5.5625 C4.93886719 6.38878906 5.19023438 7.21507812 5.44921875 8.06640625 C5.63097656 8.70449219 5.81273437 9.34257812 6 10 C5.01 9.67 4.02 9.34 3 9 C2.05078125 6.93359375 2.05078125 6.93359375 1.3125 4.4375 C1.06113281 3.61121094 0.80976562 2.78492188 0.55078125 1.93359375 C0.36902344 1.29550781 0.18726563 0.65742188 0 0 Z " fill="#98E530" transform="translate(1001,468)"/>
<path d="M0 0 C0.33 0.99 0.66 1.98 1 3 C-0.65 4.65 -2.3 6.3 -4 8 C-4.99 7.67 -5.98 7.34 -7 7 C-4.69 4.69 -2.38 2.38 0 0 Z " fill="#ECFBFD" transform="translate(351,349)"/>
<path d="M0 0 C6.625 0.75 6.625 0.75 10 3 C10 3.66 10 4.32 10 5 C6.7 4.01 3.4 3.02 0 2 C0 1.34 0 0.68 0 0 Z " fill="#75E64A" transform="translate(868,735)"/>
<path d="M0 0 C0.66 0.99 1.32 1.98 2 3 C0.35 4.65 -1.3 6.3 -3 8 C-3.66 7.67 -4.32 7.34 -5 7 C-3.35 4.69 -1.7 2.38 0 0 Z " fill="#CFF6FC" transform="translate(767,736)"/>
<path d="M0 0 C0.6875 1.8125 0.6875 1.8125 1 4 C-0.4375 5.75 -0.4375 5.75 -2 7 C-2.99 6.67 -3.98 6.34 -5 6 C-3.35 4.02 -1.7 2.04 0 0 Z " fill="#91E830" transform="translate(715,494)"/>
<path d="M0 0 C0.66 0.99 1.32 1.98 2 3 C-0.97 5.475 -0.97 5.475 -4 8 C-4 4.09161134 -2.49432124 2.88405893 0 0 Z " fill="#91E92B" transform="translate(867,302)"/>
<path d="M0 0 C2.62187494 1.04874998 3.79371361 1.64931313 5.25 4.125 C5.4975 4.74375 5.745 5.3625 6 6 C5.01 6 4.02 6 3 6 C0 2.66666667 0 2.66666667 0 0 Z " fill="#8EE627" transform="translate(987,246)"/>
</svg>
