<?xml version="1.0" encoding="UTF-8"?>
<svg version="1.1" xmlns="http://www.w3.org/2000/svg" width="1254" height="1254">
<path d="M0 0 C413.82 0 827.64 0 1254 0 C1254 413.82 1254 827.64 1254 1254 C840.18 1254 426.36 1254 0 1254 C0 840.18 0 426.36 0 0 Z " fill="#FDFDFD" transform="translate(0,0)"/>
<path d="M0 0 C7.7634105 -0.04660678 15.52678743 -0.08201179 23.29030323 -0.10362434 C26.89630433 -0.11400406 30.50220879 -0.12805516 34.1081543 -0.15087891 C37.59652832 -0.17281704 41.08481016 -0.18461217 44.57324791 -0.18975449 C46.53330402 -0.19517768 48.49332373 -0.21075598 50.45332336 -0.22659302 C65.24895891 -0.22842438 80.99422528 2.11733237 92 13 C99.36815136 22.02976181 101.56777312 30.54199873 101.5 42 C101.49500488 43.10561279 101.49000977 44.21122559 101.48486328 45.3503418 C101.28705052 54.70688522 99.66338209 62.43587006 96 71 C95.5771875 72.06089844 95.154375 73.12179687 94.71875 74.21484375 C88.54567505 88.15809734 78.09469406 97.08710028 64.3359375 103.1796875 C62 104 62 104 59 104 C59.40649215 105.50278915 59.82589208 107.00208692 60.25 108.5 C60.48203125 109.3353125 60.7140625 110.170625 60.953125 111.03125 C61.79477966 113.41803186 62.70412617 115.46019488 63.85839844 117.69384766 C65.87281901 121.68099389 67.62958715 125.73110266 69.3125 129.8671875 C69.60809814 130.58681671 69.90369629 131.30644592 70.20825195 132.04788208 C71.1416959 134.32242765 72.07087329 136.59868801 73 138.875 C73.62212511 140.39203813 74.24451902 141.90896606 74.8671875 143.42578125 C76.32998848 146.99150446 77.78448713 150.56054019 79.23632812 154.1307373 C79.92677127 155.82075584 80.62688034 157.50681753 81.328125 159.19238281 C81.69421875 160.08022461 82.0603125 160.96806641 82.4375 161.8828125 C82.74558594 162.62160645 83.05367187 163.36040039 83.37109375 164.12158203 C84 166 84 166 84 169 C70.8 169 57.6 169 44 169 C43.01 165.04 42.02 161.08 41 157 C39.55785118 153.64882567 39.55785118 153.64882567 38.03125 150.3359375 C36.84384581 147.64628709 35.95533179 144.92589973 35.0625 142.125 C33.76472971 138.08862785 32.27572923 134.31955415 30.4375 130.5 C27.74886952 124.81570407 26.36979742 119.12804107 25 113 C20.05 113 15.1 113 10 113 C9.88213135 114.25482178 9.7642627 115.50964355 9.64282227 116.80249023 C9.02515858 122.33824452 7.89816282 127.7215197 6.71484375 133.16015625 C6.49429825 134.19063583 6.27375275 135.22111542 6.04652405 136.28282166 C5.34765452 139.54361955 4.64267971 142.80306157 3.9375 146.0625 C3.45988097 148.28572022 2.98266338 150.50902672 2.50585938 152.73242188 C1.34262414 158.15613261 0.17112583 163.57796372 -1 169 C-11.89 169 -22.78 169 -34 169 C-34 164.05961244 -33.9373229 160.86507113 -32.86328125 156.2890625 C-32.61819824 155.22179932 -32.37311523 154.15453613 -32.12060547 153.05493164 C-31.85393066 151.9230542 -31.58725586 150.79117676 -31.3125 149.625 C-30.75693578 147.19971682 -30.20359964 144.77392232 -29.65234375 142.34765625 C-29.37374512 141.12191895 -29.09514648 139.89618164 -28.80810547 138.63330078 C-27.58307001 133.12545256 -26.46862914 127.59772623 -25.375 122.0625 C-25.17334229 121.04494629 -24.97168457 120.02739258 -24.76391602 118.97900391 C-23.97480021 114.98300114 -23.19207482 110.98578164 -22.41308594 106.98779297 C-22.03672306 105.05726155 -21.65902004 103.12699077 -21.27978516 101.19702148 C-20.93478725 99.44071184 -20.59314287 97.68373906 -20.25537109 95.92602539 C-19.11250611 90.11250611 -19.11250611 90.11250611 -18 89 C-17.69099985 87.58036609 -17.43548418 86.14901625 -17.203125 84.71484375 C-17.05141846 83.80234863 -16.89971191 82.88985352 -16.7434082 81.94970703 C-16.5805835 80.95567871 -16.41775879 79.96165039 -16.25 78.9375 C-14.76413605 70.13139622 -13.12642223 61.36956156 -11.3125 52.625 C-10.99104004 51.05673462 -10.99104004 51.05673462 -10.66308594 49.45678711 C-10.35999512 48.01251343 -10.35999512 48.01251343 -10.05078125 46.5390625 C-9.87200439 45.68521973 -9.69322754 44.83137695 -9.5090332 43.95166016 C-9 42 -9 42 -8 41 C-7.47842003 38.02252349 -7.00455518 35.05191569 -6.5625 32.0625 C-3.85285627 14.36837841 -3.85285627 14.36837841 -1 6 C-0.64833649 4.00314149 -0.31267499 2.00333359 0 0 Z " fill="#86DB0B" transform="translate(704,481)"/>
<path d="M0 0 C7.80736904 -0.09356113 15.61460153 -0.16419405 23.4223938 -0.20724869 C27.04970399 -0.22793516 30.67662477 -0.25589502 34.30371094 -0.30175781 C76.476584 -0.82076869 76.476584 -0.82076869 90.2421875 12.10546875 C99.48287394 21.93850688 102.53685431 32.41650463 102.24609375 45.80859375 C101.07536882 60.99085193 95.72113759 76.20501973 86 88 C85.25363281 88.93199219 85.25363281 88.93199219 84.4921875 89.8828125 C80.89951832 93.90876842 76.63843863 96.61929171 72 99.3125 C71.41855225 99.65039551 70.83710449 99.98829102 70.23803711 100.33642578 C66.26327856 102.54183332 62.36845372 103.81005141 58 105 C58.4626123 106.060979 58.92522461 107.12195801 59.40185547 108.21508789 C59.71024857 108.92240051 60.01864166 109.62971313 60.33638 110.35845947 C61.0342686 111.9590939 61.73217563 113.5597203 62.43009949 115.16033936 C64.35970579 119.58596056 66.28868965 124.01185154 68.21655273 128.43823242 C71.58714826 136.17636389 74.95844166 143.91405357 78.35546875 151.640625 C78.82291504 152.70659912 79.29036133 153.77257324 79.77197266 154.87084961 C80.61375557 156.78962418 81.45835147 158.70716785 82.30615234 160.62329102 C82.67047363 161.45530029 83.03479492 162.28730957 83.41015625 163.14453125 C83.72090088 163.84940674 84.03164551 164.55428223 84.35180664 165.28051758 C85 167 85 167 85 169 C72.46 169 59.92 169 47 169 C43.72607607 161.79736735 40.54863511 154.62257496 37.57421875 147.30078125 C37.18176468 146.3397197 36.78931061 145.37865814 36.38496399 144.38847351 C35.15043496 141.36397675 33.91891371 138.33826629 32.6875 135.3125 C31.84329896 133.24275696 30.99889963 131.17309478 30.15429688 129.10351562 C28.10057523 124.06994066 26.04954725 119.03527603 24 114 C17.07 113.505 17.07 113.505 10 113 C9.814375 114.918125 9.814375 114.918125 9.625 116.875 C9.16892779 120.96698121 8.45413408 124.93846915 7.60546875 128.96484375 C7.11308416 131.43312003 6.66354487 133.89864202 6.23828125 136.37890625 C6.10599121 137.14976562 5.97370117 137.920625 5.83740234 138.71484375 C5.57288701 140.26770057 5.31144307 141.82108401 5.05322266 143.375 C4.10944424 148.89055576 4.10944424 148.89055576 3 150 C2.45692928 153.48660532 2.03351345 156.98286674 1.59765625 160.484375 C1 164 1 164 -1 169 C-11.89 169 -22.78 169 -34 169 C-32.88616071 158.97544643 -32.88616071 158.97544643 -31.6875 154.1875 C-30.41376619 148.87316565 -29.29542103 143.54979836 -28.25 138.1875 C-26.77158412 130.6310703 -25.15033111 123.11219767 -23.47509766 115.59716797 C-20.62565158 102.81313561 -18.0183379 90.03135249 -15.77807617 77.12304688 C-14.40690192 69.22816677 -12.9413904 61.3585511 -11.375 53.5 C-11.18083496 52.51588135 -10.98666992 51.5317627 -10.78662109 50.51782227 C-9.84826212 45.85348576 -8.82111978 41.23570202 -7.62353516 36.63085938 C-5.75826783 29.22175571 -4.28270209 21.74451086 -2.8125 14.25 C-2.53738314 12.85932081 -2.26199403 11.46869546 -1.98632812 10.078125 C-1.32109078 6.7193624 -0.65949931 3.35989459 0 0 Z " fill="#04CEF0" transform="translate(343,481)"/>
<path d="M0 0 C10.56 0 21.12 0 32 0 C30.88423946 10.04184484 30.88423946 10.04184484 29.57421875 14.83984375 C28.04261329 20.70960818 26.89636677 26.59644535 25.8125 32.5625 C23.80464347 43.3159335 21.46951626 53.97069035 19 64.625 C16.62548149 74.8793642 14.27317176 85.13257418 12.125 95.4375 C11.83882812 96.80092529 11.83882812 96.80092529 11.546875 98.19189453 C10.6490704 102.54998771 9.84553306 106.90549965 9.15234375 111.30078125 C7.43206013 121.83328545 5.03944879 132.25010887 2.81079102 142.68408203 C2.20311407 145.53359741 1.59945132 148.38394242 0.99609375 151.234375 C0.81066513 152.09601257 0.62523651 152.95765015 0.43418884 153.84539795 C0.26053299 154.66695374 0.08687714 155.48850952 -0.09204102 156.33496094 C-0.24367203 157.04489197 -0.39530304 157.754823 -0.55152893 158.48626709 C-1.1728698 161.96895551 -1.56120474 165.48963793 -2 169 C-11.9 169 -21.8 169 -32 169 C-32 161.58979514 -31.6772577 159.24693463 -29 153 C-29.66 153 -30.32 153 -31 153 C-31.268125 153.58910156 -31.53625 154.17820312 -31.8125 154.78515625 C-36.0783659 162.74155745 -43.84872401 166.68875736 -51.99609375 169.75 C-60.5563566 172.31273981 -69.57080326 171.98214329 -77.68359375 168.2578125 C-84.72274493 164.43554154 -89.49740846 160.26694258 -93 153 C-93.39316406 152.21753906 -93.78632812 151.43507813 -94.19140625 150.62890625 C-100.15996107 136.30021541 -98.0779333 117.61807542 -94 103 C-93.6596875 101.76121094 -93.319375 100.52242187 -92.96875 99.24609375 C-88.40943625 84.22808394 -81.08387505 72.93739212 -70 62 C-68.94619141 60.948125 -68.94619141 60.948125 -67.87109375 59.875 C-59.41504055 51.94851781 -49.17493795 47.60348247 -37.625 47.875 C-36.52091797 47.88853516 -36.52091797 47.88853516 -35.39453125 47.90234375 C-33.5962112 47.92569856 -31.79806089 47.96156164 -30 48 C-30 48.66 -30 49.32 -30 50 C-29.29875 50.0825 -28.5975 50.165 -27.875 50.25 C-21.60296552 51.88618291 -17.67847691 55.91504663 -14 61 C-14 61.99 -14 62.98 -14 64 C-13.34 64 -12.68 64 -12 64 C-12.02634521 63.12754639 -12.05269043 62.25509277 -12.07983398 61.35620117 C-12.0023442 58.09854964 -11.52430656 55.44890425 -10.72265625 52.30078125 C-9.40742136 46.86143931 -8.27239579 41.41715176 -7.24609375 35.91796875 C-7.09806305 35.12673615 -6.95003235 34.33550354 -6.79751587 33.52029419 C-6.34210763 31.07640837 -5.88938486 28.6320396 -5.4375 26.1875 C-4.98053423 23.7176569 -4.5226732 21.24799884 -4.06178284 18.77888489 C-3.77784535 17.25773853 -3.49605205 15.7361896 -3.21690369 14.2141571 C-3.08659256 13.51595352 -2.95628143 12.81774994 -2.82202148 12.09838867 C-2.71115707 11.4980632 -2.60029266 10.89773773 -2.48606873 10.27922058 C-1.75081643 6.83155551 -0.85498505 3.4199402 0 0 Z " fill="#86DB0B" transform="translate(1003,481)"/>
<path d="M0 0 C3.99004883 3.17235381 6.79109017 7.10171159 9.05859375 11.63671875 C10.53109772 7.32438569 11.80374772 3.02867984 13.05859375 -1.36328125 C22.95859375 -1.36328125 32.85859375 -1.36328125 43.05859375 -1.36328125 C41.93359793 7.63668529 41.93359793 7.63668529 41.24584961 10.81323242 C41.09124268 11.53554047 40.93663574 12.25784851 40.77734375 13.00204468 C40.61105469 13.76191681 40.44476562 14.52178894 40.2734375 15.3046875 C40.0969165 16.12466217 39.92039551 16.94463684 39.73852539 17.78945923 C39.16097992 20.46842954 38.5785692 23.14631643 37.99609375 25.82421875 C37.58831397 27.71111487 37.1808478 29.59807879 36.77368164 31.48510742 C35.73630155 36.28932817 34.69503646 41.09269789 33.65283203 45.89587402 C32.75420064 50.04069131 31.85941701 54.18633654 30.96484375 58.33203125 C28.83734142 68.18809918 26.70335688 78.04276002 24.56896973 87.89733887 C23.41918153 93.20619149 22.2698269 98.51513773 21.12109375 103.82421875 C20.87986282 104.9390564 20.87986282 104.9390564 20.63375854 106.07641602 C16.41249006 125.59017097 12.23592025 145.11351921 8.05859375 164.63671875 C-2.50140625 164.63671875 -13.06140625 164.63671875 -23.94140625 164.63671875 C-19.03877635 138.4893593 -19.03877635 138.4893593 -16.81640625 130.07421875 C-14.69795537 122.00515992 -13.28530436 113.86300416 -11.94140625 105.63671875 C-12.451875 106.15621094 -12.96234375 106.67570313 -13.48828125 107.2109375 C-22.71490768 116.06130079 -33.31075575 120.04184281 -46.02734375 119.921875 C-53.44623281 119.19589792 -61.69285841 115.53824103 -66.49609375 109.76953125 C-76.09050098 96.35645447 -77.68950851 80.57129745 -75.2578125 64.63671875 C-71.10277971 40.97954361 -61.62052702 19.46241475 -41.94140625 4.63671875 C-39.03644746 2.72952756 -36.08241509 1.12027483 -32.94140625 -0.36328125 C-32.27882813 -0.68425781 -31.61625 -1.00523437 -30.93359375 -1.3359375 C-21.4686504 -5.20468811 -8.86737478 -5.21874165 0 0 Z " fill="#03CEF0" transform="translate(623.94140625,532.36328125)"/>
<path d="M0 0 C7.70056506 6.28104817 11.58129219 13.4964874 13.45703125 23.203125 C14.8760301 37.31842935 11.53621161 49.03889533 8.45703125 63.203125 C-14.31296875 63.203125 -37.08296875 63.203125 -60.54296875 63.203125 C-60.307292 74.62459869 -60.307292 74.62459869 -55.54296875 83.203125 C-49.7250203 87.56658634 -43.5867892 87.75120325 -36.54296875 87.203125 C-29.7829774 85.96832782 -24.44866751 83.21166277 -18.76953125 79.41015625 C-16.54296875 78.203125 -16.54296875 78.203125 -12.54296875 78.203125 C-11.1550293 79.68432617 -11.1550293 79.68432617 -9.9296875 81.74609375 C-9.26549805 82.86274414 -9.26549805 82.86274414 -8.58789062 84.00195312 C-8.13994141 84.79021484 -7.69199219 85.57847656 -7.23046875 86.390625 C-6.76318359 87.15955078 -6.29589844 87.92847656 -5.81445312 88.72070312 C-3.97692269 91.88277543 -2.59954417 94.29148925 -2.37109375 97.97265625 C-4.07314769 101.21223224 -6.57059831 102.83425138 -9.60546875 104.703125 C-10.21946533 105.09113281 -10.83346191 105.47914063 -11.46606445 105.87890625 C-18.38917944 110.03816559 -25.78921961 112.14769328 -33.54296875 114.203125 C-34.53296875 114.533125 -35.52296875 114.863125 -36.54296875 115.203125 C-39.89247258 115.45896027 -43.24721666 115.4345326 -46.60546875 115.453125 C-47.50974609 115.47375 -48.41402344 115.494375 -49.34570312 115.515625 C-60.51440042 115.57949175 -70.70542591 112.22612698 -79.23046875 104.890625 C-91.23650733 90.93766124 -92.51734718 77.73893436 -91.3046875 59.6484375 C-88.99059648 39.40598476 -79.50164333 19.129043 -63.73046875 5.953125 C-45.8992736 -7.52235836 -19.48083362 -13.76525878 0 0 Z " fill="#05CEF0" transform="translate(531.54296875,536.796875)"/>
<path d="M0 0 C1.13405273 -0.02646606 1.13405273 -0.02646606 2.29101562 -0.0534668 C7.73426061 -0.0469529 11.98879973 1.08848273 16.9375 3.3125 C17.71480469 3.65152344 18.49210937 3.99054687 19.29296875 4.33984375 C26.62406673 7.98194573 31.29208449 11.99280991 35.01171875 19.47265625 C40.70464214 36.9357588 33.07993437 58.3650524 29.04980469 75.5390625 C27.45204546 82.3610808 25.95097357 89.20410498 24.45559692 96.04916382 C24.01189209 98.07081609 23.56132169 100.09082676 23.10913086 102.1105957 C21.44798973 109.57804888 21.44798973 109.57804888 20.30859375 117.13671875 C19.9375 120.3125 19.9375 120.3125 18.9375 121.3125 C16.86487924 121.40017112 14.78929706 121.41945873 12.71484375 121.41015625 C10.82475586 121.40532227 10.82475586 121.40532227 8.89648438 121.40039062 C7.55598891 121.39203403 6.21549412 121.38356907 4.875 121.375 C3.53060058 121.3699866 2.1861994 121.36542342 0.84179688 121.36132812 C-2.45965433 121.34949497 -5.7610826 121.33155886 -9.0625 121.3125 C-9.0625 117.0225 -9.0625 112.7325 -9.0625 108.3125 C-9.784375 109.055 -10.50625 109.7975 -11.25 110.5625 C-15.61421955 114.82973689 -19.49129869 117.73722329 -25.1875 120 C-26.22132812 120.41636719 -27.25515625 120.83273437 -28.3203125 121.26171875 C-36.00872646 124.20784888 -44.08617239 124.4645361 -51.86328125 121.4765625 C-58.29046373 118.07460801 -63.88821305 112.94659974 -66.47265625 106.05078125 C-69.14652421 93.63765914 -67.01509081 81.46307576 -60.4375 70.625 C-50.17856446 56.50297401 -35.33164794 50.31806247 -18.56689453 47.60839844 C-11.10588166 46.72686718 -3.55399377 47.03098249 3.9375 47.3125 C4.01847324 45.04225032 4.07667704 42.77117925 4.125 40.5 C4.15980469 39.23542969 4.19460938 37.97085938 4.23046875 36.66796875 C4.2246789 33.40592574 4.2246789 33.40592574 2.67578125 31.48828125 C-3.56378697 27.26780926 -9.14415996 27.73267627 -16.44140625 28.8125 C-23.40972315 30.15873905 -29.52613893 32.10736296 -35.85546875 35.32421875 C-38.0625 36.3125 -38.0625 36.3125 -41.0625 36.3125 C-41.5689814 33.60523634 -42.067851 30.89692876 -42.5625 28.1875 C-42.70558594 27.42695312 -42.84867188 26.66640625 -42.99609375 25.8828125 C-43.76562456 21.63207086 -44.22894376 17.65390803 -44.0625 13.3125 C-27.10927361 4.45727877 -27.10927361 4.45727877 -18.0625 2.3125 C-17.41152344 2.11011719 -16.76054688 1.90773438 -16.08984375 1.69921875 C-10.78296668 0.19611484 -5.47999854 0.072896 0 0 Z " fill="#86DB0B" transform="translate(1087.0625,528.6875)"/>
<path d="M0 0 C1.37671875 0.00676758 1.37671875 0.00676758 2.78125 0.01367188 C5.02090391 0.02533674 7.26041545 0.04170386 9.5 0.0625 C9.5 0.7225 9.5 1.3825 9.5 2.0625 C10.61375 2.083125 11.7275 2.10375 12.875 2.125 C18.8221655 2.90530186 23.17723395 6.04283274 27.5 10.0625 C33.01799659 17.43097625 34.68066372 23.3022851 34.6875 32.3125 C34.69974609 33.14652344 34.71199219 33.98054687 34.72460938 34.83984375 C34.73665356 39.95460588 34.08421293 44.15082824 32.5 49.0625 C32.37625 50.361875 32.2525 51.66125 32.125 53 C31.721819 57.16041085 30.8005679 61.04906358 29.75 65.09375 C28.1337019 71.41708817 26.63329112 77.75918494 25.2109375 84.12890625 C25.01932037 84.98657089 24.82770325 85.84423553 24.63027954 86.72789001 C24.04370375 89.35993296 23.45900161 91.99238476 22.875 94.625 C22.09352976 98.1476715 21.30931915 101.66971659 20.5234375 105.19140625 C20.34944427 105.98003555 20.17545105 106.76866486 19.9961853 107.58119202 C19.74549789 108.70417946 19.74549789 108.70417946 19.48974609 109.84985352 C19.3463681 110.49664566 19.20299011 111.14343781 19.05526733 111.80982971 C18.28949074 114.91651738 17.37901841 117.98593557 16.5 121.0625 C6.93 121.0625 -2.64 121.0625 -12.5 121.0625 C-12.17 118.0925 -11.84 115.1225 -11.5 112.0625 C-11.5 111.0725 -11.5 110.0825 -11.5 109.0625 C-12.01046875 109.58199219 -12.5209375 110.10148438 -13.046875 110.63671875 C-21.65454353 118.89336534 -31.88569823 123.47616807 -43.8515625 123.265625 C-51.57395557 122.67334707 -56.99365956 119.70279706 -62.546875 114.34375 C-68.5831258 107.29340906 -69.09789083 99.71052815 -68.81640625 90.67578125 C-67.78320151 78.87683825 -62.29245596 68.94682543 -53.68359375 60.875 C-40.77541709 50.16052063 -23.80461226 46.63752112 -7.375 46.9375 C-6.41851563 46.94652344 -5.46203125 46.95554687 -4.4765625 46.96484375 C-2.15076475 46.98810173 0.17447294 47.02077787 2.5 47.0625 C3.32622136 38.48075421 3.32622136 38.48075421 0.25 30.8125 C-5.73411491 27.00442688 -12.61330068 27.50391217 -19.5 28.0625 C-26.22644994 29.64567663 -32.53319465 32.36402126 -38.7578125 35.328125 C-40.5 36.0625 -40.5 36.0625 -42.5 36.0625 C-44.18561267 30.84806404 -44.88512698 26.08710865 -45.125 20.625 C-45.16367187 19.89345703 -45.20234375 19.16191406 -45.2421875 18.40820312 C-45.33533984 16.62666468 -45.41870286 14.84461878 -45.5 13.0625 C-30.47126119 4.60370165 -17.4221698 -0.16459899 0 0 Z " fill="#86DB0B" transform="translate(865.5,528.9375)"/>
<path d="M0 0 C0.76634766 0.32371582 1.53269531 0.64743164 2.32226562 0.98095703 C6.99109722 3.06046536 10.12516885 5.21224621 13.5 9.0625 C11.025 12.0325 11.025 12.0325 8.5 15.0625 C5.55815434 14.42126507 3.06446694 13.46679495 0.3671875 12.13671875 C-24.87427447 -0.00012179 -52.70255839 -3.61939492 -79.671875 5.796875 C-88.89520218 9.22865203 -97.57546615 13.15179158 -105.5 19.0625 C-106.32242188 19.66578125 -107.14484375 20.2690625 -107.9921875 20.890625 C-129.15820305 37.11130981 -142.91876023 59.00692276 -148.5 85.0625 C-148.72429687 86.03058594 -148.94859375 86.99867188 -149.1796875 87.99609375 C-154.48080939 114.17492169 -148.31304132 142.1212466 -134.36328125 164.62890625 C-118.94047734 187.63851136 -97.16147971 203.45812222 -69.97241211 209.72167969 C-46.71334141 214.26726097 -22.77372697 211.49079753 -1.5 201.0625 C-0.43523437 200.54945313 0.62953125 200.03640625 1.7265625 199.5078125 C25.90449875 187.22066457 43.35847815 165.41927585 51.8125 139.875 C52.52663795 137.6067427 53.22105532 135.33432419 53.89794922 133.0546875 C54.40456326 131.37830042 54.96392781 129.71798467 55.53515625 128.0625 C61.60555559 108.63722213 57.2277152 85.87034944 50.13671875 67.3125 C49.5 65.0625 49.5 65.0625 50.5 62.0625 C52.65739128 60.57464394 53.8925263 60.00929652 56.52099609 60.23950195 C58.5 61.0625 58.5 61.0625 59.56494141 62.97338867 C59.95431885 64.21439331 59.95431885 64.21439331 60.3515625 65.48046875 C60.64474365 66.39771729 60.9379248 67.31496582 61.23999023 68.26000977 C61.67807007 69.74005493 61.67807007 69.74005493 62.125 71.25 C62.43058838 72.25796631 62.73617676 73.26593262 63.05102539 74.30444336 C68.69391846 93.44794659 69.71477896 113.69632493 64.5 133.0625 C64.33371094 133.69430176 64.16742188 134.32610352 63.99609375 134.97705078 C55.68361534 165.94103286 36.89568762 191.44195063 9.06225586 207.58105469 C-17.10374726 222.14128647 -48.78827888 226.43393065 -77.68164062 218.46044922 C-94.41702783 213.65783918 -108.10435148 206.08210471 -121.5 195.0625 C-122.51320313 194.27939453 -122.51320313 194.27939453 -123.546875 193.48046875 C-143.17193826 177.86143905 -157.46912057 149.4574518 -160.27294922 124.85595703 C-162.9523564 91.8906055 -157.46514954 59.18978233 -135.515625 33.3515625 C-134.85046875 32.59617187 -134.1853125 31.84078125 -133.5 31.0625 C-132.81421875 30.24523437 -132.1284375 29.42796875 -131.421875 28.5859375 C-98.669236 -9.46838767 -45.33306354 -19.45316401 0 0 Z " fill="#0ED0F0" transform="translate(215.5,460.9375)"/>
<path d="M0 0 C-0.44587561 6.79960307 -1.54527937 13.38832528 -2.875 20.0625 C-3.11718262 21.34894409 -3.11718262 21.34894409 -3.36425781 22.66137695 C-3.53022461 23.46534912 -3.69619141 24.26932129 -3.8671875 25.09765625 C-4.01269043 25.82476807 -4.15819336 26.55187988 -4.30810547 27.30102539 C-4.53643066 27.86168701 -4.76475586 28.42234863 -5 29 C-8.21608287 30.07202762 -10.32255231 30.00425535 -13.6875 29.875 C-23.6201813 29.86307601 -28.62418364 32.82930393 -35.8046875 39.69140625 C-44.79948855 49.15035184 -46.25366429 63.83334702 -49.125 76.125 C-49.50567627 77.75078979 -49.50567627 77.75078979 -49.89404297 79.40942383 C-51.34483767 85.73951055 -52.57202131 92.06158645 -53.56591797 98.47973633 C-54.12623537 101.73291771 -55.07842187 104.83207519 -56 108 C-56.54964918 110.90872741 -57.05366985 113.82143529 -57.53515625 116.7421875 C-58 119 -58 119 -59 120 C-61.29151417 120.08790975 -63.58572524 120.10694038 -65.87890625 120.09765625 C-66.90889992 120.09553383 -66.90889992 120.09553383 -67.95970154 120.09336853 C-70.16067801 120.08775479 -72.36155409 120.07520007 -74.5625 120.0625 C-76.05143083 120.05748676 -77.54036324 120.05292355 -79.02929688 120.04882812 C-82.68623075 120.03778093 -86.34310558 120.02050713 -90 120 C-89.47996091 112.21849766 -88.28129021 104.78926313 -86.5625 97.1875 C-86.34529297 96.19041016 -86.12808594 95.19332031 -85.90429688 94.16601562 C-84.83363843 89.33358425 -83.61083973 84.68424106 -82 80 C-80.16841219 72.43554234 -78.71915144 64.81402469 -77.625 57.109375 C-77.08558231 54.42577202 -76.38420399 51.95654996 -75.5625 49.3515625 C-73.8682698 43.84120214 -72.90556089 38.31025265 -72 32.625 C-70.82343713 25.52313734 -69.58053166 18.5324887 -67.61328125 11.59765625 C-66.7922435 8.12001229 -66.44320703 4.54565622 -66 1 C-56.1 1 -46.2 1 -36 1 C-36.33 4.3 -36.66 7.6 -37 11 C-37.66 11 -38.32 11 -39 11 C-39 13.64 -39 16.28 -39 19 C-38.54625 18.030625 -38.0925 17.06125 -37.625 16.0625 C-33.258648 8.49825639 -25.95911055 2.45618731 -17.73046875 -0.421875 C-12.36561818 -1.55778041 -5.04216176 -2.52108088 0 0 Z " fill="#87DB0D" transform="translate(1214,530)"/>
<path d="M0 0 C13.41394905 5.70167857 23.19269164 26.06303365 29.6875 38.25 C30.1218335 39.06009521 30.55616699 39.87019043 31.00366211 40.70483398 C31.59546265 41.84867554 31.59546265 41.84867554 32.19921875 43.015625 C32.54815186 43.68883789 32.89708496 44.36205078 33.2565918 45.05566406 C34 47 34 47 34 51 C33.4330542 51.30591064 32.8661084 51.61182129 32.28198242 51.92700195 C15.94359562 60.75620766 -0.19962519 69.86378575 -16.10302734 79.45483398 C-21.57088616 82.75156755 -27.06441389 86.00396837 -32.5625 89.25 C-33.95202881 90.07081055 -33.95202881 90.07081055 -35.36962891 90.90820312 C-40.21489714 93.76923451 -45.0629236 96.62549673 -49.9140625 99.4765625 C-51.838578 100.60931327 -53.76305787 101.74212458 -55.6875 102.875 C-56.60974365 103.41624512 -57.5319873 103.95749023 -58.48217773 104.51513672 C-64.11664395 107.83653872 -69.61887817 111.26771859 -74.9765625 115.0234375 C-77 116 -77 116 -79.1328125 115.79296875 C-81.67539288 114.71316997 -83.16655204 113.02988881 -85 111 C-83.56503929 106.67943524 -81.41188293 103.85873858 -78.4375 100.4375 C-74.17675913 95.4596888 -70.18821708 90.3402532 -66.28515625 85.07421875 C-60.36530404 77.11024664 -54.25893911 69.29398008 -48.0390625 61.5625 C-45.35979074 58.19544584 -42.74165718 54.7830022 -40.12402344 51.36791992 C-34.73313855 44.33856946 -29.28353468 37.35496085 -23.84082031 30.36572266 C-21.98314703 27.97834147 -20.12793854 25.58906474 -18.2734375 23.19921875 C-12.23640553 15.42187497 -6.19277676 7.65442594 0 0 Z " fill="#88DC0C" transform="translate(260,446)"/>
<path d="M0 0 C-1.07401108 2.91517292 -1.77810176 4.77810176 -4 7 C-7.59196274 6.60494488 -10.72449821 5.39669378 -14.0625 4.0625 C-31.61451105 -2.41643025 -52.06121554 -1.36519948 -69.09375 6.42578125 C-88.72565295 17.05972868 -101.15717737 32.88500446 -108 54 C-112.51835849 73.71900894 -108.57111387 93.82397037 -98.16796875 110.84375 C-88.11510357 125.47927264 -73.19850469 136.24866213 -56 141 C-38.99664734 143.7500137 -22.80708678 143.0340712 -7 136 C-5.94296875 135.53207031 -4.8859375 135.06414062 -3.796875 134.58203125 C3.11461596 131.13593869 8.54734534 126.41624294 14 121 C14.69996094 120.34644531 15.39992187 119.69289063 16.12109375 119.01953125 C26.01537609 109.04810051 33.27933332 91.96821604 34 78 C34.06445312 77.01644531 34.12890625 76.03289062 34.1953125 75.01953125 C34.57103986 64.3363501 32.33759746 54.37308873 30 44 C32.31 42.68 34.62 41.36 37 40 C41.60589858 49.86978266 43.54404545 59.29956973 43.4375 70.1875 C43.42614014 71.8267041 43.42614014 71.8267041 43.41455078 73.49902344 C42.96168431 95.9043442 33.72772939 115.19761366 18 131 C10.51968454 138.05319868 2.49602197 143.08221546 -7 147 C-7.92280762 147.38744385 -7.92280762 147.38744385 -8.86425781 147.78271484 C-28.01091503 155.47001378 -51.17394366 154.07033999 -70.1875 146.75 C-84.07974242 140.53069147 -96.61767604 130.82567621 -105 118 C-105.87591797 116.71996094 -105.87591797 116.71996094 -106.76953125 115.4140625 C-118.61114288 97.6142505 -121.61678787 76.46754427 -118.63378906 55.41552734 C-114.62163487 35.68423683 -102.16894922 16.89265435 -86 5 C-61.42797167 -10.94345459 -25.52339978 -18.78522224 0 0 Z " fill="#0CCFEF" transform="translate(207,496)"/>
<path d="M0 0 C3.50954431 3.11155475 5.62984645 6.20110343 6.4609375 10.84375 C6.44469246 25.23685406 3.89147044 43.94340865 -6.17578125 54.94140625 C-11.78300013 60.23500102 -16.80171349 63.68382118 -24.66796875 64.1171875 C-29.14295163 63.94214565 -31.7033802 62.68618436 -35.10546875 59.6796875 C-40.97830607 51.90214619 -40.85844676 44.05600767 -40.10546875 34.6796875 C-38.2786601 21.67518622 -33.77500115 9.76648584 -23.40234375 1.2734375 C-15.62394168 -4.12382108 -8.1782121 -5.09680835 0 0 Z " fill="#F9FDFD" transform="translate(620.10546875,560.3203125)"/>
<path d="M0 0 C3.58961669 1.8220614 6.41894679 4.36985386 8.203125 8 C11.75575156 20.65491826 7.65669349 36.86998105 1.98046875 48.3984375 C-2.44935798 56.14288983 -7.52081148 61.47959341 -16.13671875 64.3515625 C-20.88258979 64.73358308 -25.45831864 64.89886688 -30.01171875 63.4140625 C-35.07295279 58.50168829 -37.3575033 53.81655466 -37.63110352 46.66186523 C-37.66914587 32.70362778 -34.37761139 19.14155397 -25.69921875 7.9140625 C-18.44846983 0.66331358 -10.39686588 -3.15517319 0 0 Z " fill="#FBFDF9" transform="translate(975.13671875,558.6484375)"/>
<path d="M0 0 C0.94166016 -0.01160156 1.88332031 -0.02320313 2.85351562 -0.03515625 C8.90087556 -0.00990631 13.40929231 0.91367785 18.9375 3.375 C17.56595496 6.32909701 15.94886276 8.81508376 13.9375 11.375 C13.21433594 11.21386719 12.49117187 11.05273438 11.74609375 10.88671875 C1.45787722 9.01223145 -12.21751176 9.42208748 -21.125 15.1875 C-28.79207105 21.07218922 -36.19210716 28.71516449 -37.80078125 38.609375 C-39.14118652 52.77365761 -38.29736508 61.6873392 -29.4609375 73.51953125 C-24.12444677 79.55265747 -16.33962458 83.28627738 -8.625 85.25 C-7.449375 85.29125 -6.27375 85.3325 -5.0625 85.375 C-4.12019531 85.4471875 -3.17789063 85.519375 -2.20703125 85.59375 C8.7859943 86.11910367 18.69782638 83.0385398 27.23046875 75.9609375 C34.28521789 69.40663967 38.5503899 62.04397332 39.9375 52.375 C40.05080938 49.26937557 40.03188056 46.1696281 40 43.0625 C39.99548828 42.22654297 39.99097656 41.39058594 39.98632812 40.52929688 C39.97460548 38.47783351 39.95667203 36.42640727 39.9375 34.375 C45.6875 31.375 45.6875 31.375 47.9375 31.375 C51.04532801 41.08696254 51.16679213 51.68712362 47.9375 61.375 C47.57011719 62.53902344 47.57011719 62.53902344 47.1953125 63.7265625 C43.19750025 75.15393734 34.81325466 84.3976655 24.1875 90.0625 C11.75598582 95.84026521 -2.12160367 97.82977952 -15.4375 93.8125 C-27.3078349 89.15205388 -38.39810927 81.00258264 -44.2890625 69.3828125 C-49.01750311 57.10797172 -50.59426194 42.21369632 -45.32421875 29.8984375 C-38.73016033 16.71032066 -30.04798537 7.00957537 -15.90234375 1.6953125 C-10.60119394 0.01963629 -5.52179705 -0.06831089 0 0 Z " fill="#11D0EE" transform="translate(169.0625,519.625)"/>
<path d="M0 0 C4.14545449 -0.14658609 8.29023274 -0.23450196 12.4375 -0.3125 C13.60216797 -0.35439453 14.76683594 -0.39628906 15.96679688 -0.43945312 C23.55097741 -0.54627257 28.90035523 0.31654332 35 5 C38.98755629 9.0872452 40.12588351 12.51907186 40.25 18.125 C40.100906 27.21973388 36.85813509 35.08156897 31 42 C23.36938844 49.37303818 15.09071679 51.35920382 4.67773438 51.26367188 C3.60845703 51.23853516 2.53917969 51.21339844 1.4375 51.1875 C0.33341797 51.17396484 -0.77066406 51.16042969 -1.90820312 51.14648438 C-4.60599272 51.11144815 -7.30272636 51.06232591 -10 51 C-10.19238745 45.95944869 -9.6189222 41.93390283 -8.125 37.125 C-5.55462153 28.53595364 -3.80426025 20.18939696 -2.5625 11.30859375 C-1.9095412 7.46792638 -0.9822534 3.76939743 0 0 Z " fill="#FBFDF8" transform="translate(731,513)"/>
<path d="M0 0 C3.97891352 -0.11735877 7.9573746 -0.18763654 11.9375 -0.25 C13.05447266 -0.28351562 14.17144531 -0.31703125 15.32226562 -0.3515625 C22.35401456 -0.43404636 27.96548195 0.18690624 34 4 C38.24523437 8.24523437 40.08645374 12.35328301 40.25 18.3125 C40.00419711 27.59155898 36.80340542 36.56819662 30.62109375 43.6171875 C24.5398639 48.80454983 17.20922671 51.13941078 9.359375 51.09765625 C8.28945313 51.09443359 7.21953125 51.09121094 6.1171875 51.08789062 C5.00601562 51.07951172 3.89484375 51.07113281 2.75 51.0625 C1.06003906 51.05573242 1.06003906 51.05573242 -0.6640625 51.04882812 C-3.44276217 51.03705397 -6.22135409 51.0206084 -9 51 C-9.20779667 45.54712881 -8.47113156 40.8495369 -7.1875 35.5625 C-6.81681518 33.97056165 -6.44836974 32.3781004 -6.08203125 30.78515625 C-5.89850098 29.9873877 -5.7149707 29.18961914 -5.52587891 28.36767578 C-4.45611059 23.55123516 -3.59248477 18.69744556 -2.7109375 13.84375 C-1.85557093 9.21913077 -0.93244882 4.60959641 0 0 Z " fill="#F8FDFD" transform="translate(370,513)"/>
<path d="M0 0 C1.06494141 1.91088867 1.06494141 1.91088867 1.8515625 4.41796875 C2.29133423 5.79384155 2.29133423 5.79384155 2.73999023 7.19750977 C3.03204346 8.18420654 3.32409668 9.17090332 3.625 10.1875 C3.93058838 11.19546631 4.23617676 12.20343262 4.55102539 13.24194336 C10.19391846 32.38544659 11.21477896 52.63382493 6 72 C5.83371094 72.63180176 5.66742188 73.26360352 5.49609375 73.91455078 C-2.82021374 104.89279617 -21.60321488 130.33626029 -49.42016602 146.51196289 C-59.0550443 151.88428749 -68.96008437 155.91430664 -80 157 C-79.67 155.35 -79.34 153.7 -79 152 C-80.32 151.67 -81.64 151.34 -83 151 C-82.505 150.01 -82.505 150.01 -82 149 C-81.01 149 -80.02 149 -79 149 C-79 148.34 -79 147.68 -79 147 C-77.67162109 146.61521484 -77.67162109 146.61521484 -76.31640625 146.22265625 C-61.23079764 141.5604026 -47.64042058 134.83947421 -36 124 C-35.05382812 123.12214844 -34.10765625 122.24429688 -33.1328125 121.33984375 C-18.70029234 107.60547516 -10.20885427 90.87472571 -4.60205078 71.9921875 C-4.09543674 70.31580042 -3.53607219 68.65548467 -2.96484375 67 C3.10555559 47.57472213 -1.2722848 24.80784944 -8.36328125 6.25 C-9 4 -9 4 -8 1 C-5.06373323 -1.02501156 -3.30048681 -1.37255626 0 0 Z " fill="#0CCCEE" transform="translate(274,522)"/>
<path d="M0 0 C-1.07401108 2.91517292 -1.77810176 4.77810176 -4 7 C-7.59196274 6.60494488 -10.72449821 5.39669378 -14.0625 4.0625 C-31.61451105 -2.41643025 -52.06121554 -1.36519948 -69.09375 6.42578125 C-88.72565295 17.05972868 -101.15717737 32.88500446 -108 54 C-109.32479879 59.66270701 -109.22007496 65.40074594 -109.25 71.1875 C-109.270625 72.16525391 -109.29125 73.14300781 -109.3125 74.15039062 C-109.3454106 80.37460769 -108.53386967 85.70682459 -106.66577148 91.64892578 C-105.86164299 94.48858748 -105.7620313 97.06505275 -106 100 C-106.66 99.34 -107.32 98.68 -108 98 C-108.99 98.99 -109.98 99.98 -111 101 C-111.66 100.67 -112.32 100.34 -113 100 C-113.495 100.99 -113.495 100.99 -114 102 C-121.80298869 86.39402262 -121.73113455 63.22318449 -116.32836914 46.83813477 C-108.25031849 24.75849146 -93.1858072 7.40333428 -72 -3 C-50.03037008 -12.86136798 -20.35020671 -14.97775214 0 0 Z " fill="#0ED0ED" transform="translate(207,496)"/>
<path d="M0 0 C7.59 0 15.18 0 23 0 C23 0.66 23 1.32 23 2 C23.639375 2.309375 24.27875 2.61875 24.9375 2.9375 C27 4 27 4 28 5 C28.44562911 9.22490676 28.67636067 12.84455052 26.5 16.5625 C26.005 17.036875 25.51 17.51125 25 18 C25.825 18.495 26.65 18.99 27.5 19.5 C30 22 30 22 30.5 25.9375 C30.22890348 29.67724172 29.54148476 32.13058172 27 35 C21.12039187 38.21831182 16.17018246 38.37157464 9.5625 38.1875 C4.8290625 38.0946875 4.8290625 38.0946875 0 38 C0 25.46 0 12.92 0 0 Z " fill="#1AD5F1" transform="translate(250,737)"/>
<path d="M0 0 C3.10782801 9.71196254 3.22929213 20.31212362 0 30 C-0.36738281 31.16402344 -0.36738281 31.16402344 -0.7421875 32.3515625 C-4.73999975 43.77893734 -13.12424534 53.0226655 -23.75 58.6875 C-36.33612653 64.53712403 -50.26398897 66.47406504 -63.6875 62.25 C-67.88369035 60.63386066 -71.45406702 58.75794787 -75 56 C-73.68 53.69 -72.36 51.38 -71 49 C-68.13692509 49.93216392 -65.32411323 50.85871987 -62.5625 52.0625 C-59.37085191 53.23017613 -56.36526779 53.73652708 -53 54 C-52.04867187 54.07734375 -51.09734375 54.1546875 -50.1171875 54.234375 C-39.12696324 54.71105943 -29.24180241 51.66530558 -20.70703125 44.5859375 C-13.65228211 38.03163967 -9.3871101 30.66897332 -8 21 C-7.88669062 17.89437557 -7.90561944 14.7946281 -7.9375 11.6875 C-7.94201172 10.85154297 -7.94652344 10.01558594 -7.95117188 9.15429688 C-7.96289452 7.10283351 -7.98082797 5.05140727 -8 3 C-2.25 0 -2.25 0 0 0 Z " fill="#0DCEEF" transform="translate(217,551)"/>
<path d="M0 0 C2.64 0 5.28 0 8 0 C8 12.54 8 25.08 8 38 C5.69 38 3.38 38 1 38 C1 37.34 1 36.68 1 36 C0.34 36.495 -0.32 36.99 -1 37.5 C-4.73391366 39.36695683 -7.96215382 40.12775782 -12 39 C-15.44868057 36.21281204 -17.60241235 33.19276295 -19 29 C-19.52759548 23.97486927 -19.56992466 20.11949488 -17.25 15.5625 C-12.4798331 10.12980992 -12.4798331 10.12980992 -7.4375 9.6875 C-4 10 -4 10 -1 12 C-0.67 8.04 -0.34 4.08 0 0 Z " fill="#1AD3F1" transform="translate(919,736)"/>
<path d="M0 0 C3.320625 -0.12375 6.64125 -0.2475 10.0625 -0.375 C11.09511963 -0.42962402 12.12773926 -0.48424805 13.19165039 -0.54052734 C18.00616894 -0.62690725 21.27689186 -0.36222085 25.140625 2.67578125 C27.25985835 4.81619113 27.96155996 5.86864801 28.82421875 8.81640625 C28.45449845 16.24250259 28.45449845 16.24250259 26.125 20.125 C21.00899725 24.63912007 14.52249167 23.05929538 8 23 C8 27.95 8 32.9 8 38 C5.36 38 2.72 38 0 38 C0 25.46 0 12.92 0 0 Z " fill="#12D1F0" transform="translate(762,737)"/>
<path d="M0 0 C1.10408203 0.01353516 1.10408203 0.01353516 2.23046875 0.02734375 C4.0287888 0.05069856 5.82693911 0.08656164 7.625 0.125 C7.20311534 8.84394971 4.895855 16.47628623 -1.6875 22.5625 C-7.69936265 27.15597947 -13.86451336 28.98685912 -21.375 28.125 C-24.1850346 26.33136089 -25.88440468 25.10619065 -27.375 22.125 C-27.83979249 17.38411661 -27.42715496 13.91626087 -24.83984375 9.828125 C-18.3036681 2.22873144 -9.63567217 -0.22651671 0 0 Z " fill="#F9FCF5" transform="translate(1078.375,597.875)"/>
<path d="M0 0 C-1.52363896 8.9088066 -3.40192813 16.40192813 -10 23 C-15.91378638 26.63391179 -21.94612069 29.03126891 -29 28 C-31.8100346 26.20636089 -33.50940468 24.98119065 -35 22 C-35.74410807 17.92431717 -35.80782482 14.4459811 -33.75390625 10.76953125 C-28.83147253 4.71027681 -23.19687408 1.95023564 -15.6875 0.25 C-10.45537203 -0.10472054 -5.2417308 -0.077464 0 0 Z " fill="#FAFCF7" transform="translate(863,598)"/>
<path d="M0 0 C4.65608859 2.40213616 6.68093187 5.36186373 9 10 C9 13.63 9 17.26 9 21 C-4.2 21 -17.4 21 -31 21 C-29.4494205 13.24710251 -25.83520014 8.28538125 -19.84375 3.2265625 C-13.76432487 -0.81780083 -7.07626191 -1.00965115 0 0 Z " fill="#F5FCFD" transform="translate(507,556)"/>
<path d="M0 0 C4.29889461 2.06802885 7.26460924 4.48635456 9 9 C9.68781032 14.2945399 9.65484652 18.69030695 7.25 23.5 C2.55660937 28.71487848 2.55660937 28.71487848 -1.3671875 29.43359375 C-7.04066884 29.44243095 -10.69987039 29.09036719 -15 25 C-17.69363853 20.2412386 -18.59316755 16.43736917 -18 11 C-14.9477262 2.52146167 -8.91341592 -1.94980973 0 0 Z " fill="#0FCFEF" transform="translate(869,746)"/>
<path d="M0 0 C3.54332023 1.97101889 5.7556466 4.63346989 8 8 C8 10.97 8 13.94 8 17 C2.06 17 -3.88 17 -10 17 C-9.34 18.98 -8.68 20.96 -8 23 C-2.98464948 22.67039784 -2.98464948 22.67039784 1 20 C4.125 20.375 4.125 20.375 7 21 C6.08516297 24.384897 5.33774897 25.76110439 2.4375 27.8125 C-1.8699961 29.30054411 -5.49613672 29.86209905 -10 29 C-13.29289641 27.30111714 -15.39929018 24.95567472 -17.375 21.8125 C-18.55377582 16.50800879 -18.87436374 11.23448511 -16.875 6.125 C-12.06318101 0.67160515 -7.15541634 -1.51044567 0 0 Z " fill="#19D2F0" transform="translate(500,746)"/>
<path d="M0 0 C5.15917354 4.22786141 6.10174189 11.70007099 7 18 C8.1582191 31.91977318 9.10458781 49.84311828 1 62 C-0.175625 61.0409375 -0.175625 61.0409375 -1.375 60.0625 C-3.79539281 58.01857687 -3.79539281 58.01857687 -6 57 C-5.69201674 55.51988629 -5.378482 54.04092675 -5.0625 52.5625 C-4.88847656 51.73878906 -4.71445313 50.91507813 -4.53515625 50.06640625 C-4 48 -4 48 -3 47 C-0.70544913 31.95794433 -2.69232806 18.67779425 -6 4 C-4.02 2.68 -2.04 1.36 0 0 Z " fill="#8BE117" transform="translate(243,536)"/>
<path d="M0 0 C2.64 0 5.28 0 8 0 C8.33 6.6 8.66 13.2 9 20 C10.65 20.33 12.3 20.66 14 21 C16.3968665 18.6031335 16.28281133 17.92971686 16.4140625 14.6484375 C16.45273437 13.79765625 16.49140625 12.946875 16.53125 12.0703125 C16.5621875 11.18085937 16.593125 10.29140625 16.625 9.375 C16.66367187 8.4778125 16.70234375 7.580625 16.7421875 6.65625 C16.83659357 4.4377073 16.92216748 2.21917597 17 0 C19.64 0 22.28 0 25 0 C25 9.24 25 18.48 25 28 C22.69 28 20.38 28 18 28 C18 27.01 18 26.02 18 25 C17.34 25.495 16.68 25.99 16 26.5 C12.77758632 28.11120684 10.58318595 28.45716706 7.0625 28.69140625 C4.35091018 27.78240739 2.73233802 26.27321144 0.99462891 24.0300293 C-1.06401461 19.82835506 -0.50408759 15.1936271 -0.3125 10.625 C-0.28994141 9.60277344 -0.26738281 8.58054687 -0.24414062 7.52734375 C-0.18548082 5.01670419 -0.10345928 2.50912621 0 0 Z " fill="#1AD1EF" transform="translate(304,747)"/>
<path d="M0 0 C2.64 0 5.28 0 8 0 C8.33 6.6 8.66 13.2 9 20 C10.65 20.33 12.3 20.66 14 21 C16.3968665 18.6031335 16.28281133 17.92971686 16.4140625 14.6484375 C16.45273437 13.79765625 16.49140625 12.946875 16.53125 12.0703125 C16.5621875 11.18085937 16.593125 10.29140625 16.625 9.375 C16.66367187 8.4778125 16.70234375 7.580625 16.7421875 6.65625 C16.83659357 4.4377073 16.92216748 2.21917597 17 0 C19.64 0 22.28 0 25 0 C25 9.24 25 18.48 25 28 C22.69 28 20.38 28 18 28 C18 27.01 18 26.02 18 25 C17.34 25.495 16.68 25.99 16 26.5 C11.88248556 28.55875722 9.58746602 28.50971845 5 28 C2.03141843 25.79259319 1.17134209 24.51402627 0 21 C-0.08143855 19.37280518 -0.1075302 17.74248281 -0.09765625 16.11328125 C-0.09443359 15.17548828 -0.09121094 14.23769531 -0.08789062 13.27148438 C-0.07532227 11.80678711 -0.07532227 11.80678711 -0.0625 10.3125 C-0.05798828 9.32443359 -0.05347656 8.33636719 -0.04882812 7.31835938 C-0.03704303 4.87884526 -0.02059011 2.43945311 0 0 Z " fill="#15CFF0" transform="translate(951,747)"/>
<path d="M0 0 C3.53572726 1.24554028 5.47778889 3.44589154 7.0625 6.7265625 C7.65899096 10.70683735 7.53562207 14.58848197 7.375 18.6015625 C7.35244141 19.67148437 7.32988281 20.74140625 7.30664062 21.84375 C7.24795633 24.47280657 7.1659118 27.09894832 7.0625 29.7265625 C4.4225 29.7265625 1.7825 29.7265625 -0.9375 29.7265625 C-1.2675 22.7965625 -1.5975 15.8665625 -1.9375 8.7265625 C-3.5875 8.3965625 -5.2375 8.0665625 -6.9375 7.7265625 C-9.3343665 10.123429 -9.22031133 10.79684564 -9.3515625 14.078125 C-9.40957031 15.35429688 -9.40957031 15.35429688 -9.46875 16.65625 C-9.4996875 17.54570313 -9.530625 18.43515625 -9.5625 19.3515625 C-9.62050781 20.69734375 -9.62050781 20.69734375 -9.6796875 22.0703125 C-9.77409357 24.2888552 -9.85966748 26.50738653 -9.9375 28.7265625 C-12.2475 28.7265625 -14.5575 28.7265625 -16.9375 28.7265625 C-16.9375 19.8165625 -16.9375 10.9065625 -16.9375 1.7265625 C-14.9575 1.7265625 -12.9775 1.7265625 -10.9375 1.7265625 C-10.9375 2.7165625 -10.9375 3.7065625 -10.9375 4.7265625 C-10.2775 4.0665625 -9.6175 3.4065625 -8.9375 2.7265625 C-5.61491782 0.51150771 -3.85385034 0.20201635 0 0 Z " fill="#11D0EF" transform="translate(451.9375,745.2734375)"/>
<path d="M0 0 C3.5625 1.6875 3.5625 1.6875 6 4 C6.875 6.75 6.875 6.75 7 9 C4.69 9 2.38 9 0 9 C-0.33 8.34 -0.66 7.68 -1 7 C-4.02934491 6.34227572 -4.02934491 6.34227572 -7 6 C-6.87550091 7.9766994 -6.87550091 7.9766994 -6 10 C-3.81760129 11.03641574 -3.81760129 11.03641574 -1.1875 11.5625 C2.53576608 12.44794437 5.20553475 13.30738314 8 16 C8.52457793 19.25238319 8.75340885 20.92657023 8 24 C5.20933912 27.72088117 3.6664145 28.72563756 -0.89453125 29.4765625 C-5.95052715 29.7134649 -8.98274056 29.71806548 -13.1875 26.75 C-14.76022685 24.36379375 -15.68756334 22.8119299 -16 20 C-12.625 19.875 -12.625 19.875 -9 20 C-8.34 20.66 -7.68 21.32 -7 22 C-3.91652174 22.16681109 -3.91652174 22.16681109 -1 22 C-1 21.01 -1 20.02 -1 19 C-1.67546875 18.82984375 -2.3509375 18.6596875 -3.046875 18.484375 C-12.62803235 15.88140162 -12.62803235 15.88140162 -15 12 C-15.70341469 7.70135466 -15.4780487 5.74894297 -13.125 2.0625 C-8.72737817 -0.83993041 -5.12770588 -0.88465213 0 0 Z " fill="#19CEEC" transform="translate(546,746)"/>
<path d="M0 0 C3.5625 1.6875 3.5625 1.6875 6 4 C6.875 6.75 6.875 6.75 7 9 C4.69 9 2.38 9 0 9 C-0.33 8.34 -0.66 7.68 -1 7 C-4.02934491 6.34227572 -4.02934491 6.34227572 -7 6 C-6.67 7.32 -6.34 8.64 -6 10 C-5.40832031 10.09796875 -4.81664062 10.1959375 -4.20703125 10.296875 C4.82536557 12.00610507 4.82536557 12.00610507 8 16 C8.39986347 19.04632824 8.29349713 21.94762981 8 25 C2.14652085 29.16247406 -2.8596957 30.09087982 -10 29 C-13.125 27.3125 -13.125 27.3125 -15 25 C-15.8125 22.25 -15.8125 22.25 -16 20 C-13.69 20 -11.38 20 -9 20 C-8.67 20.66 -8.34 21.32 -8 22 C-6.10466658 22.46523063 -6.10466658 22.46523063 -3.9375 22.625 C-2.638125 22.74875 -1.33875 22.8725 0 23 C-0.1239405 21.02052502 -0.1239405 21.02052502 -1 19 C-3.18538275 18.00072004 -3.18538275 18.00072004 -5.8125 17.5 C-12.78488206 15.62473844 -12.78488206 15.62473844 -15 12 C-15.70341469 7.70135466 -15.4780487 5.74894297 -13.125 2.0625 C-8.72737817 -0.83993041 -5.12770588 -0.88465213 0 0 Z " fill="#1BCFEE" transform="translate(702,746)"/>
<path d="M0 0 C3.68623011 1.61272567 4.75355 2.630325 7 6 C7 6.99 7 7.98 7 9 C3.625 9.125 3.625 9.125 0 9 C-0.66 8.34 -1.32 7.68 -2 7 C-4.58354218 6.83312552 -4.58354218 6.83312552 -7 7 C-6.67 7.99 -6.34 8.98 -6 10 C-4.05398946 10.62222887 -4.05398946 10.62222887 -1.75 10.875 C2.84478993 11.76904206 5.22292229 13.05834132 8 17 C8.73807041 20.9363755 8.36136708 22.43925798 6.1875 25.8125 C2.92241687 29.07758313 0.06760831 29.19687047 -4.375 29.3125 C-8.11762897 29.27289546 -9.77175993 29.12324964 -13.125 27.3125 C-15.16670984 24.7943912 -15.73309994 23.20280069 -16 20 C-12.625 19.8125 -12.625 19.8125 -9 20 C-8.34 20.99 -7.68 21.98 -7 23 C-4.41619823 23.25030977 -4.41619823 23.25030977 -2 23 C-1.67 21.68 -1.34 20.36 -1 19 C-1.75925781 18.82984375 -2.51851563 18.6596875 -3.30078125 18.484375 C-4.29464844 18.24203125 -5.28851563 17.9996875 -6.3125 17.75 C-7.29863281 17.51796875 -8.28476562 17.2859375 -9.30078125 17.046875 C-12.40039295 15.84471011 -13.39497076 14.87412213 -15 12 C-15.62301014 7.7168053 -15.46809459 5.7333482 -13.125 2.0625 C-8.74090152 -0.83100499 -5.11414267 -0.78226196 0 0 Z " fill="#16CEED" transform="translate(369,746)"/>
<path d="M0 0 C3 1.125 3 1.125 5 3 C6.3125 6.1875 6.3125 6.1875 7 9 C3.625 9.125 3.625 9.125 0 9 C-0.66 8.34 -1.32 7.68 -2 7 C-4.58354218 6.83312552 -4.58354218 6.83312552 -7 7 C-7 7.99 -7 8.98 -7 10 C-6.40832031 10.09796875 -5.81664062 10.1959375 -5.20703125 10.296875 C-0.2774595 11.22971403 3.64312778 11.99341057 7 16 C7.69990157 20.27717625 7.50342498 22.2280817 5.125 25.875 C1.91653033 29.08346967 0.05974367 29.15777652 -4.375 29.1875 C-5.80972656 29.20876953 -5.80972656 29.20876953 -7.2734375 29.23046875 C-10.09350283 28.99209647 -11.65531337 28.55451691 -14 27 C-16 24 -16 24 -16 20 C-13.69 20 -11.38 20 -9 20 C-8.67 20.66 -8.34 21.32 -8 22 C-5.69 22 -3.38 22 -1 22 C-1.33 21.01 -1.66 20.02 -2 19 C-4.23236116 18.08150174 -4.23236116 18.08150174 -6.875 17.5 C-10.42187816 16.63137678 -12.81482589 16.03809691 -15 13 C-15.67876033 9.92860949 -15.56836931 7.08702548 -15 4 C-11.24544431 -1.13122611 -5.83109541 -0.77684001 0 0 Z " fill="#1BD2F0" transform="translate(593,746)"/>
<path d="M0 0 C1.94384766 0.8659668 1.94384766 0.8659668 3.00878906 2.77685547 C3.26837402 3.60419189 3.52795898 4.43152832 3.79541016 5.28393555 C4.08859131 6.20207031 4.38177246 7.12020508 4.68383789 8.06616211 C4.97589111 9.05197266 5.26794434 10.0377832 5.56884766 11.0534668 C5.87443604 12.05345703 6.18002441 13.05344727 6.49487305 14.08374023 C9.73495386 25.0078942 11.28997367 35.44380841 10.94384766 46.8659668 C7.97384766 46.8659668 5.00384766 46.8659668 1.94384766 46.8659668 C1.84587891 45.83600586 1.74791016 44.80604492 1.64697266 43.74487305 C0.21373324 29.72968481 -2.70504166 16.2818914 -7.05615234 2.8659668 C-2.67779931 -0.17455614 -2.67779931 -0.17455614 0 0 Z " fill="#8CE31C" transform="translate(272.05615234375,521.134033203125)"/>
<path d="M0 0 C4.01091222 1.08922536 7.07236692 3.23822053 9.4453125 6.6640625 C9.4453125 7.9840625 9.4453125 9.3040625 9.4453125 10.6640625 C7.1353125 10.9940625 4.8253125 11.3240625 2.4453125 11.6640625 C2.2184375 11.0246875 1.9915625 10.3853125 1.7578125 9.7265625 C0.59280354 7.39212589 0.59280354 7.39212589 -2.1796875 6.9140625 C-2.9634375 6.8315625 -3.7471875 6.7490625 -4.5546875 6.6640625 C-7.07524255 10.44489508 -7.02170928 14.28124269 -6.5546875 18.6640625 C-5.69202782 21.06964103 -5.69202782 21.06964103 -4.5546875 22.6640625 C-2.13848927 22.91437227 -2.13848927 22.91437227 0.4453125 22.6640625 C1.1053125 21.6740625 1.7653125 20.6840625 2.4453125 19.6640625 C6.0703125 19.4765625 6.0703125 19.4765625 9.4453125 19.6640625 C9.23462658 23.35106616 8.4407572 24.66918721 5.9453125 27.4765625 C2.59860466 30.03296343 -0.31090412 30.27942177 -4.44140625 30.015625 C-8.75531981 29.2979684 -10.79665568 27.68348461 -13.3671875 24.2265625 C-15.37852502 18.19254994 -16.14775298 12.00337283 -13.3359375 6.109375 C-9.62710531 1.1934229 -6.1557794 -0.50827536 0 0 Z " fill="#12CEEF" transform="translate(1014.5546875,745.3359375)"/>
<path d="M0 0 C2.31727611 3.27614899 2.39525313 5.49277656 2.1875 9.43359375 C1.71568431 12.11213073 0.77097806 13.68562519 -1.1875 15.5625 C-0.3625 16.0575 0.4625 16.5525 1.3125 17.0625 C3.8125 19.5625 3.8125 19.5625 4.3125 23.5 C4.07194376 27.19081999 3.14519511 29.62503209 0.8125 32.5625 C-2.49038336 34.76442224 -3.46212727 34.80209968 -7.29296875 34.7578125 C-8.27587891 34.75136719 -9.25878906 34.74492188 -10.27148438 34.73828125 C-11.29564453 34.72152344 -12.31980469 34.70476563 -13.375 34.6875 C-14.41076172 34.67847656 -15.44652344 34.66945313 -16.51367188 34.66015625 C-19.07184685 34.6365786 -21.62955748 34.6036703 -24.1875 34.5625 C-23.5275 33.9025 -22.8675 33.2425 -22.1875 32.5625 C-21.135625 32.583125 -20.08375 32.60375 -19 32.625 C-13.9023949 32.5414327 -9.97198009 31.34698009 -6.3125 27.6875 C-5.05551275 25.31319075 -4.55581292 23.21435302 -4.1875 20.5625 C-7.14928773 18.89139958 -9.55821192 18.23567248 -12.9375 17.9375 C-13.73671875 17.86273437 -14.5359375 17.78796875 -15.359375 17.7109375 C-15.96265625 17.66195312 -16.5659375 17.61296875 -17.1875 17.5625 C-17.1875 17.2325 -17.1875 16.9025 -17.1875 16.5625 C-15.2075 16.5625 -13.2275 16.5625 -11.1875 16.5625 C-11.06375 15.634375 -11.06375 15.634375 -10.9375 14.6875 C-10.1875 12.5625 -10.1875 12.5625 -8.125 11.3125 C-7.485625 11.065 -6.84625 10.8175 -6.1875 10.5625 C-6.02062552 8.14604218 -6.02062552 8.14604218 -6.1875 5.5625 C-9.0618384 2.6881616 -12.05202878 2.7550004 -15.97265625 2.125 C-16.70355469 1.939375 -17.43445313 1.75375 -18.1875 1.5625 C-18.5175 0.9025 -18.8475 0.2425 -19.1875 -0.4375 C-12.76928349 -1.86764607 -6.11627766 -2.7583213 0 0 Z " fill="#0CCFEE" transform="translate(276.1875,739.4375)"/>
<path d="M0 0 C0 2.64 0 5.28 0 8 C1.65 8 3.3 8 5 8 C5 9.98 5 11.96 5 14 C3.35 14 1.7 14 0 14 C0 19.28 0 24.56 0 30 C1.65 30 3.3 30 5 30 C5 31.98 5 33.96 5 36 C3.58603027 36.13595863 2.16823316 36.23243845 0.75 36.3125 C-0.03890625 36.37050781 -0.8278125 36.42851563 -1.640625 36.48828125 C-4 36 -4 36 -6.28125 34.03125 C-8.59619278 29.94853273 -8.45044764 26.78623147 -8.25 22.1875 C-8.23195313 21.39923828 -8.21390625 20.61097656 -8.1953125 19.79882812 C-8.14844048 17.86535739 -8.0767041 15.93251715 -8 14 C-9.32 14 -10.64 14 -12 14 C-12 12.02 -12 10.04 -12 8 C-10.68 8 -9.36 8 -8 8 C-8 6.02 -8 4.04 -8 2 C-5.09399739 0.74335022 -3.20395416 0 0 0 Z " fill="#1BD1F0" transform="translate(1057,739)"/>
<path d="M0 0 C1.4540625 0.0309375 1.4540625 0.0309375 2.9375 0.0625 C2.9375 2.3725 2.9375 4.6825 2.9375 7.0625 C1.803125 7.35125 0.66875 7.64 -0.5 7.9375 C-1.675625 8.30875 -2.85125 8.68 -4.0625 9.0625 C-5.18073815 11.29897631 -5.25646061 12.71141529 -5.37890625 15.1953125 C-5.42080078 16.00097656 -5.46269531 16.80664062 -5.50585938 17.63671875 C-5.56483398 18.89935547 -5.56483398 18.89935547 -5.625 20.1875 C-5.66818359 21.03699219 -5.71136719 21.88648438 -5.75585938 22.76171875 C-5.86204236 24.86178223 -5.96278497 26.96211948 -6.0625 29.0625 C-8.7025 29.0625 -11.3425 29.0625 -14.0625 29.0625 C-14.0625 19.8225 -14.0625 10.5825 -14.0625 1.0625 C-10.72916667 1.0625 -7.39583333 1.0625 -4.0625 1.0625 C-3.0625 0.0625 -3.0625 0.0625 0 0 Z " fill="#18D1EF" transform="translate(827.0625,745.9375)"/>
<path d="M0 0 C0.66 0.66 1.32 1.32 2 2 C1.3125 3.875 1.3125 3.875 0 6 C-1.64363134 6.72159424 -3.31050386 7.39351421 -5 8 C-6.16983345 10.3396669 -6.1661241 11.83391527 -6.1875 14.4375 C-6.20876953 15.61119141 -6.20876953 15.61119141 -6.23046875 16.80859375 C-6.14086064 19.29205987 -6.14086064 19.29205987 -4 22 C-1.44816596 23.20450304 -1.44816596 23.20450304 1 24 C0.67 24.99 0.34 25.98 0 27 C0.66 27.33 1.32 27.66 2 28 C-1.27328013 29.63664006 -4.49090182 29.81379828 -8 29 C-11.45783046 26.23817824 -13.60645867 23.18062398 -15 19 C-15.52759548 13.97486927 -15.56992466 10.11949488 -13.25 5.5625 C-8.94430686 0.65879393 -6.73482831 -0.62359521 0 0 Z " fill="#16D0EF" transform="translate(915,746)"/>
<path d="M0 0 C3.02303295 -0.1630807 6.03716706 -0.28136405 9.0625 -0.375 C9.91005859 -0.42527344 10.75761719 -0.47554687 11.63085938 -0.52734375 C16.31647581 -0.63589085 19.32696767 -0.27370399 23.078125 2.67578125 C25.23386682 4.81729271 25.95390737 5.84249865 26.82421875 8.81640625 C26.45449845 16.24250259 26.45449845 16.24250259 24.125 20.125 C20.48780073 23.33429347 18.16092933 23.10942088 13.375 23.0625 C12.18648437 23.05347656 10.99796875 23.04445313 9.7734375 23.03515625 C8.85820313 23.02355469 7.94296875 23.01195312 7 23 C6.67 21.02 6.34 19.04 6 17 C6.71027344 16.93941406 7.42054688 16.87882813 8.15234375 16.81640625 C9.53099609 16.69072266 9.53099609 16.69072266 10.9375 16.5625 C11.85402344 16.48128906 12.77054688 16.40007813 13.71484375 16.31640625 C15.96159732 16.23955024 15.96159732 16.23955024 17 15 C17.16666667 11.5 17.16666667 11.5 17 8 C15.33657163 6.33657163 13.2174291 6.63951903 10.9375 6.4375 C10.01839844 6.35371094 9.09929688 6.26992188 8.15234375 6.18359375 C7.08693359 6.09271484 7.08693359 6.09271484 6 6 C6.66 4.68 7.32 3.36 8 2 C5.36 1.67 2.72 1.34 0 1 C0 0.67 0 0.34 0 0 Z " fill="#12CFEF" transform="translate(764,737)"/>
<path d="M0 0 C2.64 0 5.28 0 8 0 C8.5192648 6.80813848 7.78313208 12.92124894 6.125 19.5 C5.95129883 20.19416016 5.77759766 20.88832031 5.59863281 21.60351562 C4.73760022 24.84710977 3.87912556 27.18131167 2 30 C1.21625 29.360625 0.4325 28.72125 -0.375 28.0625 C-2.79539281 26.01857687 -2.79539281 26.01857687 -5 25 C-4.69201674 23.51988629 -4.378482 22.04092675 -4.0625 20.5625 C-3.80146484 19.32693359 -3.80146484 19.32693359 -3.53515625 18.06640625 C-3 16 -3 16 -2 15 C-1.60056824 12.47804033 -1.24920152 9.97036344 -0.9375 7.4375 C-0.84662109 6.72658203 -0.75574219 6.01566406 -0.66210938 5.28320312 C-0.43760497 3.52261597 -0.21831603 1.76136522 0 0 Z " fill="#59D556" transform="translate(242,568)"/>
<path d="M0 0 C2.64 0 5.28 0 8 0 C8 9.24 8 18.48 8 28 C5.36 28 2.72 28 0 28 C0 18.76 0 9.52 0 0 Z " fill="#1ED4F3" transform="translate(654,747)"/>
<path d="M0 0 C3.26473709 2.14785335 3.9058033 3.69524596 5.0625 7.4375 C5 11 5 11 2.9375 13.9375 C0 16 0 16 -3 16.625 C-7.10703441 15.76936783 -8.55401113 14.38121991 -11 11 C-11.63007693 7.00951279 -11.63021887 4.98314143 -9.4375 1.5625 C-6.05782196 -0.60396028 -3.94016013 -0.56288002 0 0 Z " fill="#8FDB16" transform="translate(172,560)"/>
<path d="M0 0 C3 0.75 3 0.75 6 1.75 C6 2.41 6 3.07 6 3.75 C5.195625 4.03875 4.39125 4.3275 3.5625 4.625 C0.8673532 5.48262568 0.8673532 5.48262568 0 7.75 C-0.09555417 9.20579587 -0.12984691 10.6660796 -0.125 12.125 C-0.12757813 12.89585937 -0.13015625 13.66671875 -0.1328125 14.4609375 C-0.00352562 16.68923486 0.44184646 18.59712205 1 20.75 C1 21.74 1 22.73 1 23.75 C3.31 24.08 5.62 24.41 8 24.75 C8 25.08 8 25.41 8 25.75 C-0.92989844 26.53028239 -0.92989844 26.53028239 -5 23.5625 C-8.55131098 18.56846893 -9.54140881 14.9220604 -9 8.75 C-5.28837209 -0.44069767 -5.28837209 -0.44069767 0 0 Z " fill="#0ECCED" transform="translate(860,748.25)"/>
<path d="M0 0 C2.31 0 4.62 0 7 0 C7 8.91 7 17.82 7 27 C4.69 27 2.38 27 0 27 C0 18.09 0 9.18 0 0 Z " fill="#0ACCEC" transform="translate(401,747)"/>
<path d="M0 0 C2.97982252 0.52146894 3.70021998 1.04636368 5.5 3.4375 C5.8984375 6.03125 5.8984375 6.03125 5.875 8.9375 C5.88273438 9.8965625 5.89046875 10.855625 5.8984375 11.84375 C5.5 14.4375 5.5 14.4375 4.1328125 16.25390625 C2.5 17.4375 2.5 17.4375 0 17.875 C-2.5 17.4375 -2.5 17.4375 -4.3125 16 C-6.09236393 12.15924099 -6.05735728 8.59859202 -5.5 4.4375 C-4.03546282 1.27718292 -3.42946102 0.60015568 0 0 Z " fill="#EDFBFD" transform="translate(864.5,751.5625)"/>
<path d="M0 0 C2.97982252 0.52146894 3.70021998 1.04636368 5.5 3.4375 C5.8984375 6.03125 5.8984375 6.03125 5.875 8.9375 C5.88273438 9.8965625 5.89046875 10.855625 5.8984375 11.84375 C5.5 14.4375 5.5 14.4375 4.1328125 16.25390625 C2.5 17.4375 2.5 17.4375 0 17.875 C-2.5 17.4375 -2.5 17.4375 -4.3125 16 C-6.09236393 12.15924099 -6.05735728 8.59859202 -5.5 4.4375 C-4.03546282 1.27718292 -3.42946102 0.60015568 0 0 Z " fill="#E6FAFC" transform="translate(913.5,751.5625)"/>
<path d="M0 0 C1.71648994 5.90043417 2.19202183 10.85530145 2 17 C-0.97 17 -3.94 17 -7 17 C-7.33 12.38 -7.66 7.76 -8 3 C-2 0 -2 0 0 0 Z " fill="#88E022" transform="translate(217,551)"/>
<path d="M0 0 C1.77049689 -0.05410687 3.54146849 -0.09284119 5.3125 -0.125 C6.29863281 -0.14820313 7.28476562 -0.17140625 8.30078125 -0.1953125 C11 0 11 0 14 2 C14.47730962 5.72301503 14.1387261 6.79191085 12 10 C9.1796875 10.29296875 9.1796875 10.29296875 5.875 10.1875 C4.23144531 10.14689453 4.23144531 10.14689453 2.5546875 10.10546875 C1.71164062 10.07066406 0.86859375 10.03585937 0 10 C0 6.7 0 3.4 0 0 Z " fill="#EAF9FC" transform="translate(258,758)"/>
<path d="M0 0 C1.60875 -0.04125 3.2175 -0.0825 4.875 -0.125 C5.77992188 -0.14820313 6.68484375 -0.17140625 7.6171875 -0.1953125 C10 0 10 0 12 2 C12.25 5.5 12.25 5.5 12 9 C10 11 10 11 7.6171875 11.1953125 C6.71226562 11.17210937 5.80734375 11.14890625 4.875 11.125 C2.461875 11.063125 2.461875 11.063125 0 11 C0 7.37 0 3.74 0 0 Z " fill="#EAFAFC" transform="translate(770,743)"/>
<path d="M0 0 C2.73455424 1.26365723 4.99940364 2.73742078 7 5 C7.6875 7.171875 7.6875 7.171875 8 9 C6.35 9.33 4.7 9.66 3 10 C3.04640625 10.67546875 3.0928125 11.3509375 3.140625 12.046875 C3.43504532 19.32326284 3.43504532 19.32326284 1.3125 22.625 C-1.36935783 24.21961817 -2.93109509 24.34098943 -6 24 C-5.38125 23.71125 -4.7625 23.4225 -4.125 23.125 C-1.86674235 22.06279958 -1.86674235 22.06279958 0 20 C0.35776166 17.4362107 0.35776166 17.4362107 0.3125 14.5625 C0.32925781 13.59441406 0.34601562 12.62632812 0.36328125 11.62890625 C-0.05393734 8.60967927 -0.75828102 7.93414804 -3 6 C-3 5.34 -3 4.68 -3 4 C-3.763125 3.87625 -4.52625 3.7525 -5.3125 3.625 C-8 3 -8 3 -11 1 C-7.49938925 -0.75030538 -3.81943966 -0.56076602 0 0 Z " fill="#1ED3F1" transform="translate(869,746)"/>
<path d="M0 0 C1.79133978 -0.05391993 3.58313899 -0.09275571 5.375 -0.125 C6.37273437 -0.14820313 7.37046875 -0.17140625 8.3984375 -0.1953125 C11 0 11 0 13 2 C13.25 4.5 13.25 4.5 13 7 C11 9 11 9 8.3984375 9.1953125 C7.40070313 9.17210937 6.40296875 9.14890625 5.375 9.125 C3.87066406 9.09792969 3.87066406 9.09792969 2.3359375 9.0703125 C1.56507813 9.04710937 0.79421875 9.02390625 0 9 C0 6.03 0 3.06 0 0 Z " fill="#E4F9FC" transform="translate(258,743)"/>
<path d="M0 0 C4.85867701 0.05568684 7.68697771 0.87290193 11.3125 4.3125 C12.1875 7.0625 12.1875 7.0625 12.3125 9.3125 C8.9375 9.5 8.9375 9.5 5.3125 9.3125 C4.6525 8.3225 3.9925 7.3325 3.3125 6.3125 C0.74967258 5.58284634 0.74967258 5.58284634 -1.6875 5.3125 C-1.6875 4.6525 -1.6875 3.9925 -1.6875 3.3125 C-3.0075 2.6525 -4.3275 1.9925 -5.6875 1.3125 C-4.05640633 -0.31859367 -2.24562778 0.06377717 0 0 Z " fill="#0BCEEE" transform="translate(540.6875,745.6875)"/>
<path d="M0 0 C3.375 0.6875 3.375 0.6875 4.375 1.6875 C4.875 4.875 4.875 4.875 4.375 8.6875 C2.30393658 11.06922293 -0.04123575 12.88809275 -2.625 14.6875 C-2.625 11.27650832 -2.13354594 8.05661686 -1.625 4.6875 C-3.275 4.3575 -4.925 4.0275 -6.625 3.6875 C-6.625 3.0275 -6.625 2.3675 -6.625 1.6875 C-3.625 -0.3125 -3.625 -0.3125 0 0 Z " fill="#06C8EB" transform="translate(548.625,759.3125)"/>
<path d="M0 0 C8.25 0 16.5 0 25 0 C25.33 0.99 25.66 1.98 26 3 C17.42 3 8.84 3 0 3 C0 2.01 0 1.02 0 0 Z " fill="#07C7E8" transform="translate(370,510)"/>
<path d="M0 0 C2.00720923 0.28674418 4.0085944 0.61866701 6 1 C4.75023244 4.65316671 4.32901247 5.78065836 1 8 C-1.48046875 8.1953125 -1.48046875 8.1953125 -4.1875 8.125 C-5.08855469 8.10695313 -5.98960937 8.08890625 -6.91796875 8.0703125 C-7.60503906 8.04710937 -8.29210937 8.02390625 -9 8 C-7.20836009 3.80219635 -5.14892195 2.85377364 -1 1 C-0.67 0.67 -0.34 0.34 0 0 Z " fill="#0BC9EC" transform="translate(501,766)"/>
<path d="M0 0 C4.71403788 0.47939368 8.66579301 0.96834048 13 3 C12.125 6.875 12.125 6.875 11 8 C9.33382885 8.04063832 7.66611905 8.042721 6 8 C5.34 6.68 4.68 5.36 4 4 C1.69 4 -0.62 4 -3 4 C-2.01 2.68 -1.02 1.36 0 0 Z " fill="#E9FBFD" transform="translate(356,762)"/>
<path d="M0 0 C6.93 0 13.86 0 21 0 C21 0.99 21 1.98 21 3 C11.1 3 1.2 3 -9 3 C-8.34 2.34 -7.68 1.68 -7 1 C-3.375 1.375 -3.375 1.375 0 2 C0 1.34 0 0.68 0 0 Z " fill="#07C6E8" transform="translate(610,694)"/>
<path d="M0 0 C2.64 0 5.28 0 8 0 C8 2.64 8 5.28 8 8 C5.36 8 2.72 8 0 8 C0 5.36 0 2.72 0 0 Z " fill="#48DCF6" transform="translate(654,736)"/>
<path d="M0 0 C1.21236328 0.04060547 1.21236328 0.04060547 2.44921875 0.08203125 C3.06410156 0.11683594 3.67898438 0.15164063 4.3125 0.1875 C4.3125 0.5175 4.3125 0.8475 4.3125 1.1875 C2.6625 1.1875 1.0125 1.1875 -0.6875 1.1875 C-0.8421875 2.8271875 -0.8421875 2.8271875 -1 4.5 C-1.6875 8.1875 -1.6875 8.1875 -3.0625 10.125 C-4.6875 11.1875 -4.6875 11.1875 -7.6875 11.1875 C-8.05499117 3.71517962 -8.05499117 3.71517962 -6.46875 1.4375 C-4.16630036 -0.17825414 -2.78434299 -0.12105839 0 0 Z " fill="#0EC8EA" transform="translate(585.6875,746.8125)"/>
<path d="M0 0 C4.71403788 0.47939368 8.66579301 0.96834048 13 3 C13 4.32 13 5.64 13 7 C10.69 7 8.38 7 6 7 C5.67 6.01 5.34 5.02 5 4 C2.69 4 0.38 4 -2 4 C-1.34 2.68 -0.68 1.36 0 0 Z " fill="#EAFAFD" transform="translate(579,762)"/>
<path d="M0 0 C4.71403788 0.47939368 8.66579301 0.96834048 13 3 C12.67 4.32 12.34 5.64 12 7 C9.125 7.125 9.125 7.125 6 7 C5.34 6.34 4.68 5.68 4 5 C1.67724823 4.59952556 -0.65739357 4.2602896 -3 4 C-2.01 2.68 -1.02 1.36 0 0 Z " fill="#E8FAFD" transform="translate(533,762)"/>
<path d="M0 0 C2.69667377 1.06232603 3.60707013 2.33826922 5.0625 4.8125 C5.0625 5.8025 5.0625 6.7925 5.0625 7.8125 C1.6875 7.9375 1.6875 7.9375 -1.9375 7.8125 C-2.5975 7.1525 -3.2575 6.4925 -3.9375 5.8125 C-5.25497324 5.11501417 -6.58664193 4.44290043 -7.9375 3.8125 C-6.6175 3.8125 -5.2975 3.8125 -3.9375 3.8125 C-3.9375 2.8225 -3.9375 1.8325 -3.9375 0.8125 C-1.9375 -0.1875 -1.9375 -0.1875 0 0 Z " fill="#24D6F3" transform="translate(370.9375,747.1875)"/>
<path d="M0 0 C2.31 0 4.62 0 7 0 C7.28875 0.804375 7.5775 1.60875 7.875 2.4375 C8.73262568 5.1326468 8.73262568 5.1326468 11 6 C9 8 9 8 6.625 8.4375 C4 8 4 8 1.6875 5.6875 C0 3 0 3 0 0 Z " fill="#0FC7E6" transform="translate(353,766)"/>
<path d="M0 0 C0.99 0.33 1.98 0.66 3 1 C3 2.98 3 4.96 3 7 C2.01 7 1.02 7 0 7 C0 7.66 0 8.32 0 9 C-0.99 9 -1.98 9 -3 9 C-3 9.66 -3 10.32 -3 11 C-5.31 11 -7.62 11 -10 11 C-8.60804085 8.2160817 -6.84424221 8.02101003 -4 7 C-4 6.34 -4 5.68 -4 5 C-3.34 5 -2.68 5 -2 5 C-1.855625 4.360625 -1.71125 3.72125 -1.5625 3.0625 C-1 1 -1 1 0 0 Z " fill="#06C5E7" transform="translate(596,763)"/>
<path d="M0 0 C2.31 0 4.62 0 7 0 C7 2.64 7 5.28 7 8 C4.69 8 2.38 8 0 8 C0 5.36 0 2.72 0 0 Z " fill="#0CCBEA" transform="translate(401,736)"/>
<path d="M0 0 C1.4540625 0.0309375 1.4540625 0.0309375 2.9375 0.0625 C2.9375 2.3725 2.9375 4.6825 2.9375 7.0625 C1.2875 7.0625 -0.3625 7.0625 -2.0625 7.0625 C-2.0625 6.4025 -2.0625 5.7425 -2.0625 5.0625 C-4.0425 5.0625 -6.0225 5.0625 -8.0625 5.0625 C-7.7325 3.7425 -7.4025 2.4225 -7.0625 1.0625 C-6.0725 1.0625 -5.0825 1.0625 -4.0625 1.0625 C-3.0625 0.0625 -3.0625 0.0625 0 0 Z " fill="#2ED2F1" transform="translate(827.0625,745.9375)"/>
<path d="M0 0 C2.31 0.66 4.62 1.32 7 2 C7 3.32 7 4.64 7 6 C4.36 6 1.72 6 -1 6 C-1.33 5.01 -1.66 4.02 -2 3 C-4.31 3 -6.62 3 -9 3 C-9 2.67 -9 2.34 -9 2 C-6.94921875 1.77213542 -4.8984375 1.54427083 -2.84765625 1.31640625 C-0.98859771 1.18113386 -0.98859771 1.18113386 0 0 Z " fill="#E4F9FC" transform="translate(695,763)"/>
<path d="M0 0 C2.61580479 0.3269756 4.64078137 0.82039068 7 2 C7 3.32 7 4.64 7 6 C3.7 6 0.4 6 -3 6 C-2 2 -2 2 0 0 Z " fill="#D2F6FB" transform="translate(493,752)"/>
<path d="M0 0 C2.31 0.66 4.62 1.32 7 2 C5.70700306 4.88437779 4.34058637 6.87219421 2 9 C1.731875 8.195625 1.46375 7.39125 1.1875 6.5625 C0.795625 5.716875 0.40375 4.87125 0 4 C-0.99 3.67 -1.98 3.34 -3 3 C-2.01 2.01 -1.02 1.02 0 0 Z " fill="#08CAEE" transform="translate(368,759)"/>
<path d="M0 0 C3.35531416 0.20429035 6.09516593 0.92258296 9.125 2.4375 C8.795 3.4275 8.465 4.4175 8.125 5.4375 C8.125 4.7775 8.125 4.1175 8.125 3.4375 C5.20847826 3.27068891 5.20847826 3.27068891 2.125 3.4375 C1.465 4.0975 0.805 4.7575 0.125 5.4375 C-3.5 5.5625 -3.5 5.5625 -6.875 5.4375 C-5.19861382 1.24653455 -4.62118718 0.52174694 0 0 Z " fill="#D1F8FC" transform="translate(498.875,763.5625)"/>
<path d="M0 0 C1.98 0 3.96 0 6 0 C6.33 0.99 6.66 1.98 7 3 C7.99 3.33 8.98 3.66 10 4 C9.34 4 8.68 4 8 4 C8 4.66 8 5.32 8 6 C5.69 5.67 3.38 5.34 1 5 C0.67 3.35 0.34 1.7 0 0 Z " fill="#DCF8FC" transform="translate(695,752)"/>
<path d="M0 0 C1.98 0 3.96 0 6 0 C6.33 0.99 6.66 1.98 7 3 C8.65 3 10.3 3 12 3 C10.68 3.33 9.36 3.66 8 4 C8 4.66 8 5.32 8 6 C5.69 5.67 3.38 5.34 1 5 C0.67 3.35 0.34 1.7 0 0 Z " fill="#EAFAFD" transform="translate(539,752)"/>
<path d="M0 0 C2.31 0 4.62 0 7 0 C7 2.64 7 5.28 7 8 C5 7 5 7 4 4 C3.01 4.495 3.01 4.495 2 5 C1.59270772 7.32156597 1.25561323 9.6568787 1 12 C0.67 12 0.34 12 0 12 C0 8.04 0 4.08 0 0 Z " fill="#07C4E5" transform="translate(401,747)"/>
<path d="M0 0 C2.625 0.375 2.625 0.375 5 1 C3.83857315 5.35535069 2.92300495 7.64619703 -1 10 C-1.9765625 3.9453125 -1.9765625 3.9453125 -2 2 C-1.34 1.34 -0.68 0.68 0 0 Z " fill="#08C6E8" transform="translate(534,748)"/>
<path d="M0 0 C1.47668858 0.0133035 2.95331108 0.03716415 4.4296875 0.0703125 C5.18378906 0.07933594 5.93789063 0.08835937 6.71484375 0.09765625 C8.57826004 0.1212438 10.44151343 0.15711531 12.3046875 0.1953125 C12.6346875 0.8553125 12.9646875 1.5153125 13.3046875 2.1953125 C6.8557684 3.51440959 0.81712958 2.89040073 -5.6953125 2.1953125 C-3.6953125 0.1953125 -3.6953125 0.1953125 0 0 Z " fill="#39D9F4" transform="translate(603.6953125,528.8046875)"/>
<path d="M0 0 C0.89589844 -0.01417969 1.79179688 -0.02835938 2.71484375 -0.04296875 C5.0625 0.1875 5.0625 0.1875 7.0625 2.1875 C5.0625 4.1875 5.0625 4.1875 1.6875 4.5 C-2.0234611 4.18008956 -3.30993948 3.7099581 -5.9375 1.1875 C-4.27188601 -0.47811399 -2.27787295 0.01634055 0 0 Z " fill="#2BD3F2" transform="translate(540.9375,745.8125)"/>
<path d="M0 0 C3 3.75 3 3.75 3 6 C2.01 6.495 2.01 6.495 1 7 C0.67 7.99 0.34 8.98 0 10 C7.59 10 15.18 10 23 10 C23 10.33 23 10.66 23 11 C15.08 11 7.16 11 -1 11 C-1 3.125 -1 3.125 0 0 Z " fill="#E2F6C9" transform="translate(722,553)"/>
<path d="M0 0 C0.33 0 0.66 0 1 0 C1 6.6 1 13.2 1 20 C0.34 20 -0.32 20 -1 20 C-2.62651522 16.74696956 -2.11453156 13.60774398 -2 10 C-1.67 9.67 -1.34 9.34 -1 9 C-0.76807135 7.48530552 -0.58784762 5.96245438 -0.4375 4.4375 C-0.35371094 3.61121094 -0.26992188 2.78492188 -0.18359375 1.93359375 C-0.12300781 1.29550781 -0.06242188 0.65742187 0 0 Z " fill="#30DAF6" transform="translate(958,747)"/>
<path d="M0 0 C0.66 0.66 1.32 1.32 2 2 C-1.3 5.3 -4.6 8.6 -8 12 C-8.66 11.34 -9.32 10.68 -10 10 C-8.7121669 8.51749445 -7.41960936 7.03909182 -6.125 5.5625 C-5.40570312 4.73878906 -4.68640625 3.91507813 -3.9453125 3.06640625 C-2 1 -2 1 0 0 Z " fill="#8BDF1A" transform="translate(1187,535)"/>
<path d="M0 0 C1.62463842 -0.05395478 3.24978541 -0.09277195 4.875 -0.125 C5.77992188 -0.14820313 6.68484375 -0.17140625 7.6171875 -0.1953125 C10 0 10 0 12 2 C7.69230769 5.93846154 7.69230769 5.93846154 4.1875 6.25 C3.1046875 6.12625 3.1046875 6.12625 2 6 C2 4.68 2 3.36 2 2 C1.34 1.34 0.68 0.68 0 0 Z " fill="#2ED1F0" transform="translate(583,746)"/>
<path d="M0 0 C1.68915269 3.26831405 3.14169254 6.60702696 4.5625 10 C4.99691406 11.03125 5.43132813 12.0625 5.87890625 13.125 C6.77672798 15.42742784 7.48454211 17.59066876 8 20 C5 19 5 19 3.3125 15.75 C2.16055679 12.45873369 1.68974652 10.4127883 2 7 C1.34 7 0.68 7 0 7 C0 4.69 0 2.38 0 0 Z " fill="#93E02E" transform="translate(762,585)"/>
<path d="M0 0 C0.33 0 0.66 0 1 0 C1.71641791 7.04477612 1.71641791 7.04477612 -1.25 11 C-5.83492868 14.31133738 -11.63078448 13.3909623 -17 13 C-17 12.67 -17 12.34 -17 12 C-16.26394531 11.98582031 -15.52789063 11.97164062 -14.76953125 11.95703125 C-8.42633068 11.66648211 -8.42633068 11.66648211 -2.875 8.8125 C-0.84055973 5.7608396 -0.25346456 3.63299208 0 0 Z " fill="#34D7F1" transform="translate(553,762)"/>
<path d="M0 0 C2.31 0 4.62 0 7 0 C7 0.99 7 1.98 7 3 C6.01 3.33 5.02 3.66 4 4 C4 3.34 4 2.68 4 2 C2.68 1.67 1.36 1.34 0 1 C0 0.67 0 0.34 0 0 Z M-5 4 C-2.03 4 0.94 4 4 4 C4.33 5.98 4.66 7.96 5 10 C4.34 9.01 3.68 8.02 3 7 C1.04614933 6.21011855 1.04614933 6.21011855 -1.125 5.8125 C-2.40375 5.544375 -3.6825 5.27625 -5 5 C-5 4.67 -5 4.34 -5 4 Z " fill="#33D5F1" transform="translate(698,758)"/>
<path d="M0 0 C2.3431213 0.25561323 4.67843403 0.59270772 7 1 C7.33 1.66 7.66 2.32 8 3 C7.21625 2.95875 6.4325 2.9175 5.625 2.875 C2.83883881 2.71271266 2.83883881 2.71271266 1 5 C1.66 5.66 2.32 6.32 3 7 C1.741875 6.87625 0.48375 6.7525 -0.8125 6.625 C-1.87404297 6.52058594 -1.87404297 6.52058594 -2.95703125 6.4140625 C-5 6 -5 6 -8 4 C-6.02 4 -4.04 4 -2 4 C-1.34 2.68 -0.68 1.36 0 0 Z " fill="#2EDAF5" transform="translate(365,757)"/>
<path d="M0 0 C0.33 0 0.66 0 1 0 C1.38133299 1.9914056 1.71325582 3.99279077 2 6 C1.67 6.33 1.34 6.66 1 7 C0.84285346 8.63256758 0.74914586 10.27135338 0.68359375 11.91015625 C0.64169922 12.89951172 0.59980469 13.88886719 0.55664062 14.90820312 C0.51732422 15.94912109 0.47800781 16.99003906 0.4375 18.0625 C0.39431641 19.10728516 0.35113281 20.15207031 0.30664062 21.22851562 C0.20018775 23.81886884 0.0981724 26.40932186 0 29 C-0.33 29 -0.66 29 -1 29 C-1.02903892 24.91668161 -1.04681189 20.8333898 -1.0625 16.75 C-1.07087891 15.59113281 -1.07925781 14.43226563 -1.08789062 13.23828125 C-1.09111328 12.12324219 -1.09433594 11.00820313 -1.09765625 9.859375 C-1.10289307 8.83295898 -1.10812988 7.80654297 -1.11352539 6.74902344 C-1.01336951 4.32374344 -0.69923078 2.31302639 0 0 Z " fill="#4EDAF0" transform="translate(89,550)"/>
<path d="M0 0 C2.31 0 4.62 0 7 0 C6.34 1.98 5.68 3.96 5 6 C4.01 6 3.02 6 2 6 C0 3 0 3 0 0 Z " fill="#20D1EE" transform="translate(686,766)"/>
<path d="M0 0 C1.98 1.32 3.96 2.64 6 4 C5.38125 4.28875 4.7625 4.5775 4.125 4.875 C1.86674235 5.93720042 1.86674235 5.93720042 0 8 C-0.103125 7.360625 -0.20625 6.72125 -0.3125 6.0625 C-0.539375 5.381875 -0.76625 4.70125 -1 4 C-1.99 3.67 -2.98 3.34 -4 3 C-2.68 2.01 -1.36 1.02 0 0 Z " fill="#EDF8DA" transform="translate(176,558)"/>
<path d="M0 0 C2.12472576 -0.05386629 4.24983652 -0.09273071 6.375 -0.125 C7.55835938 -0.14820313 8.74171875 -0.17140625 9.9609375 -0.1953125 C13 0 13 0 15 2 C10.32798795 3.20568053 5.78503708 3.09382426 1 3 C0.67 2.01 0.34 1.02 0 0 Z " fill="#99E539" transform="translate(1199,529)"/>
<path d="M0 0 C0.66 0.33 1.32 0.66 2 1 C1.125 4.875 1.125 4.875 0 6 C-1.66617115 6.04063832 -3.33388095 6.042721 -5 6 C-5.33 5.01 -5.66 4.02 -6 3 C-4.03533587 1.93224776 -2.03144641 0.93446535 0 0 Z " fill="#D9F8FD" transform="translate(367,764)"/>
<path d="M0 0 C2.64 0 5.28 0 8 0 C8.66 1.32 9.32 2.64 10 4 C7.03 4 4.06 4 1 4 C1.33 3.34 1.66 2.68 2 2 C1.34 1.34 0.68 0.68 0 0 Z " fill="#07C8EB" transform="translate(695,770)"/>
<path d="M0 0 C1.3303125 0.433125 1.3303125 0.433125 2.6875 0.875 C-1.0625 3.875 -1.0625 3.875 -3.3125 3.875 C-3.3125 4.535 -3.3125 5.195 -3.3125 5.875 C-2.3225 6.205 -1.3325 6.535 -0.3125 6.875 C-2.9525 6.545 -5.5925 6.215 -8.3125 5.875 C-4.12788462 -0.15576923 -4.12788462 -0.15576923 0 0 Z " fill="#28D9F5" transform="translate(545.3125,757.125)"/>
<path d="M0 0 C-7.28571429 3.42857143 -7.28571429 3.42857143 -12 3 C-12.33 2.01 -12.66 1.02 -13 0 C-11.58456585 -0.19658808 -10.16755969 -0.38187546 -8.75 -0.5625 C-7.96109375 -0.66691406 -7.1721875 -0.77132812 -6.359375 -0.87890625 C-3.99467126 -1.00027349 -2.2488963 -0.69633257 0 0 Z " fill="#90E32C" transform="translate(963,623)"/>
<path d="M0 0 C0 3 0 3 -1.75 5.04296875 C-2.4925 5.75066406 -3.235 6.45835937 -4 7.1875 C-4.7425 7.90292969 -5.485 8.61835937 -6.25 9.35546875 C-7.11625 10.16951172 -7.11625 10.16951172 -8 11 C-8.66 10.34 -9.32 9.68 -10 9 C-8.89902432 7.87187697 -7.79408444 6.74762189 -6.6875 5.625 C-6.07261719 4.99851562 -5.45773437 4.37203125 -4.82421875 3.7265625 C-3 2 -3 2 0 0 Z " fill="#8EE41B" transform="translate(1039,587)"/>
<path d="M0 0 C2.625 1.3125 2.625 1.3125 5 3 C5 3.66 5 4.32 5 5 C2.69 5.33 0.38 5.66 -2 6 C-2 4.35 -2 2.7 -2 1 C-1.34 0.67 -0.68 0.34 0 0 Z " fill="#1ECCEA" transform="translate(1019,751)"/>
<path d="M0 0 C2.31 0 4.62 0 7 0 C7 2.64 7 5.28 7 8 C4.69 8 2.38 8 0 8 C0 7.67 0 7.34 0 7 C1.98 7 3.96 7 6 7 C5.67 5.68 5.34 4.36 5 3 C3.35 2.67 1.7 2.34 0 2 C0 1.34 0 0.68 0 0 Z " fill="#3DDAF4" transform="translate(401,736)"/>
<path d="M0 0 C1.32 0.66 2.64 1.32 4 2 C0.80009492 4.74277578 -2.00499382 6.6302836 -6 8 C-4.02 5.36 -2.04 2.72 0 0 Z " fill="#8CE119" transform="translate(260,446)"/>
<path d="M0 0 C0.33 0.99 0.66 1.98 1 3 C0.67 3.33 0.34 3.66 0 4 C-0.23075082 5.34747084 -0.41153063 6.70377565 -0.5625 8.0625 C-0.7790625 10.0115625 -0.7790625 10.0115625 -1 12 C-1.66 12 -2.32 12 -3 12 C-3.08090971 10.37581255 -3.13914995 8.75048255 -3.1875 7.125 C-3.22230469 6.22007812 -3.25710938 5.31515625 -3.29296875 4.3828125 C-3.19628906 3.59648438 -3.09960938 2.81015625 -3 2 C-2.01 1.34 -1.02 0.68 0 0 Z " fill="#26CDEA" transform="translate(485,753)"/>
<path d="M0 0 C0.66 0.33 1.32 0.66 2 1 C1.34 4.96 0.68 8.92 0 13 C-0.66 12.67 -1.32 12.34 -2 12 C-1.85904936 10.3745692 -1.71207913 8.74965949 -1.5625 7.125 C-1.48128906 6.22007812 -1.40007813 5.31515625 -1.31640625 4.3828125 C-1 2 -1 2 0 0 Z " fill="#85E31A" transform="translate(709,608)"/>
<path d="M0 0 C0.99 0.33 1.98 0.66 3 1 C0.525 5.455 0.525 5.455 -2 10 C-3.16909807 6.49270578 -2.85056945 4.55692677 -2 1 C-1.34 0.67 -0.68 0.34 0 0 Z " fill="#E3F5CB" transform="translate(1177,540)"/>
<path d="M0 0 C1.2065625 0.0309375 1.2065625 0.0309375 2.4375 0.0625 C2.1075 1.3825 1.7775 2.7025 1.4375 4.0625 C2.4275 4.7225 3.4175 5.3825 4.4375 6.0625 C2.1275 5.7325 -0.1825 5.4025 -2.5625 5.0625 C-3.125 3.125 -3.125 3.125 -3.5625 1.0625 C-2.5625 0.0625 -2.5625 0.0625 0 0 Z " fill="#CCF6FC" transform="translate(588.5625,751.9375)"/>
<path d="M0 0 C-2.85306797 2.32472205 -5.54074837 3.7508258 -9 5 C-9 3.68 -9 2.36 -9 1 C-5.57367167 -0.61798838 -3.61944899 -1.34053666 0 0 Z " fill="#1AD0F3" transform="translate(222,669)"/>
<path d="M0 0 C0.33 0 0.66 0 1 0 C2.59166863 5.64318877 1.25395598 9.7871062 -1 15 C-1.66 15.99 -2.32 16.98 -3 18 C-2.19500136 11.96251023 -1.11517502 5.98729887 0 0 Z " fill="#A4E24B" transform="translate(678,605)"/>
<path d="M0 0 C0 3.86817267 -1.08530516 4.54640451 -3.75 7.25 C-4.79414063 8.34054687 -4.79414063 8.34054687 -5.859375 9.453125 C-8 11 -8 11 -10.265625 10.734375 C-10.83796875 10.49203125 -11.4103125 10.2496875 -12 10 C-11.46890625 9.61328125 -10.9378125 9.2265625 -10.390625 8.828125 C-6.67177773 6.08649307 -3.14670262 3.40892784 0 0 Z " fill="#1CD3F1" transform="translate(202,590)"/>
<path d="M0 0 C1.13732426 3.40401948 0.83989957 5.77456664 0.0625 9.25 C-0.13214844 10.14203125 -0.32679688 11.0340625 -0.52734375 11.953125 C-0.68332031 12.62859375 -0.83929687 13.3040625 -1 14 C-1.66 14 -2.32 14 -3 14 C-3.33 14.66 -3.66 15.32 -4 16 C-3.27275406 10.47293087 -1.66554027 5.30039859 0 0 Z " fill="#A6E34D" transform="translate(913,572)"/>
<path d="M0 0 C2.31 0 4.62 0 7 0 C7.66 1.32 8.32 2.64 9 4 C6.61435923 3.42415568 4.33317216 2.77772405 2 2 C1.67 2.99 1.34 3.98 1 5 C0.67 3.35 0.34 1.7 0 0 Z " fill="#13CFEE" transform="translate(353,766)"/>
<path d="M0 0 C-0.66 1.32 -1.32 2.64 -2 4 C-4.97 3.67 -7.94 3.34 -11 3 C-11 2.67 -11 2.34 -11 2 C-3.375 0 -3.375 0 0 0 Z " fill="#93E027" transform="translate(1064,578)"/>
<path d="M0 0 C2.475 0.99 2.475 0.99 5 2 C5 2.66 5 3.32 5 4 C5.99 4.66 6.98 5.32 8 6 C4.625 5.75 4.625 5.75 1 5 C-0.4375 2.9375 -0.4375 2.9375 -1 1 C-0.67 0.67 -0.34 0.34 0 0 Z " fill="#C7F6FC" transform="translate(362,752)"/>
<path d="M0 0 C0.433125 0.639375 0.86625 1.27875 1.3125 1.9375 C2.91239177 4.26746003 2.91239177 4.26746003 6 5 C6.33 6.65 6.66 8.3 7 10 C4.36 8.35 1.72 6.7 -1 5 C-0.67 3.35 -0.34 1.7 0 0 Z " fill="#60DC88" transform="translate(238,588)"/>
<path d="M0 0 C0.66 0 1.32 0 2 0 C0.50120132 3.11288957 -1.21167379 6.04537409 -3 9 C-3.33 9.66 -3.66 10.32 -4 11 C-4.66 11 -5.32 11 -6 11 C-4.74809374 6.51400257 -3.20614467 3.40652872 0 0 Z " fill="#EAF9D5" transform="translate(1177,570)"/>
<path d="M0 0 C1.32 0.66 2.64 1.32 4 2 C-1.17578125 5.22265625 -1.17578125 5.22265625 -3 6 C-3.99 5.67 -4.98 5.34 -6 5 C-4.06745228 2.9754262 -2.36841312 1.57894208 0 0 Z " fill="#91E41C" transform="translate(231,529)"/>
<path d="M0 0 C0.66 0 1.32 0 2 0 C1.67 3.96 1.34 7.92 1 12 C-1.23551759 8.64672361 -1.17283528 8.09256343 -0.625 4.3125 C-0.51414062 3.50425781 -0.40328125 2.69601562 -0.2890625 1.86328125 C-0.19367187 1.24839844 -0.09828125 0.63351562 0 0 Z " fill="#84E516" transform="translate(893,587)"/>
<path d="M0 0 C2.97 0.495 2.97 0.495 6 1 C6 1.99 6 2.98 6 4 C4.35 4 2.7 4 1 4 C0.67 4.66 0.34 5.32 0 6 C0 4.02 0 2.04 0 0 Z " fill="#1FD3F2" transform="translate(654,737)"/>
<path d="M0 0 C0.33 0.66 0.66 1.32 1 2 C1.99 2.33 2.98 2.66 4 3 C4 5.64 4 8.28 4 11 C0 5 0 5 0 0 Z " fill="#46DFF5" transform="translate(90,587)"/>
<path d="M0 0 C0 0.66 0 1.32 0 2 C0.66 2.33 1.32 2.66 2 3 C1 4 1 4 -2.0625 4.0625 C-3.5165625 4.0315625 -3.5165625 4.0315625 -5 4 C-5 3.01 -5 2.02 -5 1 C-3 0 -3 0 0 0 Z " fill="#06C3E3" transform="translate(154,458)"/>
<path d="M0 0 C2.475 0.495 2.475 0.495 5 1 C4.34 2.65 3.68 4.3 3 6 C2.01 5.34 1.02 4.68 0 4 C0 2.68 0 1.36 0 0 Z " fill="#1CCEEE" transform="translate(577,766)"/>
<path d="M0 0 C0.33 1.98 0.66 3.96 1 6 C0.67 5.01 0.34 4.02 0 3 C-2.64 3.33 -5.28 3.66 -8 4 C-2.7826087 0 -2.7826087 0 0 0 Z " fill="#A1E84E" transform="translate(217,551)"/>
<path d="M0 0 C0.33 1.32 0.66 2.64 1 4 C-0.9375 6.25 -0.9375 6.25 -3 8 C-3.99 7.67 -4.98 7.34 -6 7 C-4.02 4.69 -2.04 2.38 0 0 Z " fill="#8BDE21" transform="translate(765,550)"/>
<path d="M0 0 C0.33 1.32 0.66 2.64 1 4 C-1.31 4 -3.62 4 -6 4 C-6.33 3.01 -6.66 2.02 -7 1 C-5.5459375 1.0309375 -5.5459375 1.0309375 -4.0625 1.0625 C-1.12534105 1.35618499 -1.12534105 1.35618499 0 0 Z " fill="#2FDCF5" transform="translate(552,751)"/>
<path d="M0 0 C-0.33 0.99 -0.66 1.98 -1 3 C-2.70703125 3.765625 -2.70703125 3.765625 -4.8125 4.25 C-5.49957031 4.42015625 -6.18664062 4.5903125 -6.89453125 4.765625 C-9.19499821 5.02170666 -10.80629727 4.69015367 -13 4 C-11.2097939 3.32942113 -9.41778511 2.6636531 -7.625 2 C-6.62726563 1.62875 -5.62953125 1.2575 -4.6015625 0.875 C-2 0 -2 0 0 0 Z " fill="#3FD9F4" transform="translate(212,664)"/>
<path d="M0 0 C0.99 0.33 1.98 0.66 3 1 C1.02 2.98 -0.96 4.96 -3 7 C-3.66 6.67 -4.32 6.34 -5 6 C-3.35 4.02 -1.7 2.04 0 0 Z " fill="#8BE515" transform="translate(809,593)"/>
<path d="M0 0 C0.33 0.66 0.66 1.32 1 2 C2.65 2 4.3 2 6 2 C4.68 2.33 3.36 2.66 2 3 C2 3.66 2 4.32 2 5 C-0.31 4.67 -2.62 4.34 -5 4 C-4.360625 3.71125 -3.72125 3.4225 -3.0625 3.125 C-0.84793921 2.17176549 -0.84793921 2.17176549 0 0 Z " fill="#D1F7FC" transform="translate(545,753)"/>
<path d="M0 0 C0.66 0.66 1.32 1.32 2 2 C1.625 5.625 1.625 5.625 1 9 C0.34 8.67 -0.32 8.34 -1 8 C-0.67 5.36 -0.34 2.72 0 0 Z " fill="#88E319" transform="translate(702,640)"/>
<path d="M0 0 C1.53166168 4.08443115 0.63081652 7.79455657 0 12 C-0.33 12 -0.66 12 -1 12 C-1.22162329 10.37675914 -1.42689803 8.751279 -1.625 7.125 C-1.74101563 6.22007812 -1.85703125 5.31515625 -1.9765625 4.3828125 C-1.98429688 3.59648438 -1.99203125 2.81015625 -2 2 C-1.34 1.34 -0.68 0.68 0 0 Z " fill="#EDFAE2" transform="translate(971,638)"/>
<path d="M0 0 C0.763125 0.20625 1.52625 0.4125 2.3125 0.625 C0.9925 1.615 -0.3275 2.605 -1.6875 3.625 C-3.0075 2.965 -4.3275 2.305 -5.6875 1.625 C-2.6875 -0.375 -2.6875 -0.375 0 0 Z " fill="#8CDF23" transform="translate(948.6875,533.375)"/>
<path d="M0 0 C-2.97 2.475 -2.97 2.475 -6 5 C-6.33 3.35 -6.66 1.7 -7 0 C-3.98968256 -0.93423645 -3.13349732 -1.04449911 0 0 Z " fill="#1CD1F0" transform="translate(156,523)"/>
<path d="M0 0 C0.33 0.99 0.66 1.98 1 3 C-0.40445835 5.2636564 -2.1967913 7.0208685 -4 9 C-4.66 8.67 -5.32 8.34 -6 8 C-4.02 5.36 -2.04 2.72 0 0 Z " fill="#94E026" transform="translate(208,512)"/>
<path d="M0 0 C0 0.66 0 1.32 0 2 C-3 4 -3 4 -5.1875 3.625 C-5.785625 3.41875 -6.38375 3.2125 -7 3 C-4.49955934 -0.00052879 -4.2621484 0 0 0 Z " fill="#0CBCE0" transform="translate(505,768)"/>
<path d="M0 0 C0.33 0.66 0.66 1.32 1 2 C1.66 2 2.32 2 3 2 C3.66 3.65 4.32 5.3 5 7 C4.01 7 3.02 7 2 7 C1.01 5.02 0.02 3.04 -1 1 C-0.67 0.67 -0.34 0.34 0 0 Z " fill="#17D7F4" transform="translate(101,609)"/>
<path d="M0 0 C0.33 0 0.66 0 1 0 C1.75 3.1875 1.75 3.1875 2 7 C0.0625 9.9375 0.0625 9.9375 -2 12 C-1.44687265 7.97007218 -0.8441938 3.97977076 0 0 Z " fill="#2AD2F3" transform="translate(625,583)"/>
<path d="M0 0 C0.66 0 1.32 0 2 0 C1.67 2.31 1.34 4.62 1 7 C0.34 7 -0.32 7 -1 7 C-1.04254356 5.00045254 -1.04080783 2.99958364 -1 1 C-0.67 0.67 -0.34 0.34 0 0 Z " fill="#82E217" transform="translate(1119,578)"/>
<path d="M0 0 C1.9451 2.91765 2.45276317 4.62537285 3 8 C2.01 8 1.02 8 0 8 C-1.125 2.25 -1.125 2.25 0 0 Z " fill="#1ED9F3" transform="translate(124,579)"/>
<path d="M0 0 C-2.375 1.5625 -2.375 1.5625 -5 3 C-7 2 -7 2 -8 0 C-4.94736336 -0.98120464 -3.05263664 -0.98120464 0 0 Z " fill="#95E12B" transform="translate(841,579)"/>
<path d="M0 0 C3.91402949 1.26941497 5.79072873 2.51167694 8 6 C5.0280615 4.87548273 2.66559313 3.77706209 0 2 C0 1.34 0 0.68 0 0 Z " fill="#E1F8FC" transform="translate(505,556)"/>
<path d="M0 0 C0.66 0.33 1.32 0.66 2 1 C-0.11770166 3.32947183 -2.03335588 4.88750845 -5 6 C-5.99 5.67 -6.98 5.34 -8 5 C-6.71475739 4.13619741 -5.42157581 3.28419631 -4.125 2.4375 C-3.04605469 1.72400391 -3.04605469 1.72400391 -1.9453125 0.99609375 C-1.30335938 0.66738281 -0.66140625 0.33867188 0 0 Z " fill="#E6F7CC" transform="translate(258,516)"/>
<path d="M0 0 C1.65 0 3.3 0 5 0 C4.67 2.64 4.34 5.28 4 8 C2 5 2 5 2.375 2.8125 C2.58125 2.214375 2.7875 1.61625 3 1 C2.01 0.67 1.02 0.34 0 0 Z " fill="#8BE31E" transform="translate(1030,482)"/>
</svg>
